<svg xmlns="http://www.w3.org/2000/svg" width="39" height="39" viewBox="0 0 39 39"><path fill="#bcbfd0" d="M23.45,15.65h-3.9v-3.9a1.95,1.95,0,0,0-3.9,0v3.9h-3.9a1.95,1.95,0,0,0,0,3.9h3.9v3.9a1.95,1.95,0,1,0,3.9,0v-3.9h3.9a1.95,1.95,0,1,0,0-3.9Zm9.75,11.7V7.85A5.85,5.85,0,0,0,27.35,2H7.85A5.85,5.85,0,0,0,2,7.85v19.5A5.85,5.85,0,0,0,7.85,33.2h19.5A5.85,5.85,0,0,0,33.2,27.35Zm-27.3,0V7.85A1.95,1.95,0,0,1,7.85,5.9h19.5A1.95,1.95,0,0,1,29.3,7.85v19.5a1.95,1.95,0,0,1-1.95,1.95H7.85A1.95,1.95,0,0,1,5.9,27.35ZM39.05,9.8a1.95,1.95,0,0,0-1.95,1.95v19.5a5.85,5.85,0,0,1-5.85,5.85H11.75a1.95,1.95,0,0,0,0,3.9h19.5A9.75,9.75,0,0,0,41,31.25V11.75A1.95,1.95,0,0,0,39.05,9.8Z" transform="translate(-2 -2)"/></svg> 
