<svg xmlns="http://www.w3.org/2000/svg" width="14" height="14" viewBox="0 0 14 14"><defs><style>.a{fill:#7e8190;}</style></defs><path class="a" d="M5.35,11.8A1.05,1.05,0,0,0,6.4,10.75a.539.539,0,0,0,0-.1L8.353,8.692h.322L9.8,9.819v.056a1.05,1.05,0,1,0,2.1,0V9.819L14.45,7.25h0A1.05,1.05,0,1,0,13.4,6.2a.539.539,0,0,0,0,.1L10.873,8.832h-.112L9.55,7.6a1.05,1.05,0,1,0-2.1,0L5.35,9.7h0a1.05,1.05,0,0,0,0,2.1Zm9.45,2.8H2.9V2.7a.7.7,0,1,0-1.4,0V15.3a.7.7,0,0,0,.7.7H14.8a.7.7,0,1,0,0-1.4Z" transform="translate(-1.5 -2)"/></svg>