<svg xmlns="http://www.w3.org/2000/svg" width="18" height="18" viewBox="0 0 18 18">
    <path fill="#3E3F44" fill-rule="evenodd" d="M13.56 4.804c1.21 0 2.19.98 2.19 2.19v6.567c0 1.209-.98 2.189-2.19 2.189H6.994a2.19 2.19 0 0 1-2.189-2.19V6.994c0-1.209.98-2.189 2.19-2.189h6.567zm0 1.46H6.994a.73.73 0 0 0-.73.73v6.567c0 .403.327.73.73.73h6.568a.73.73 0 0 0 .73-.73V6.993a.73.73 0 0 0-.73-.73zM12.467 2.25a.73.73 0 0 1 0 1.46H4.44a.73.73 0 0 0-.73.73v8.026a.73.73 0 0 1-1.459 0V4.44c0-1.209.98-2.189 2.19-2.189z"/>
</svg>
