<svg xmlns="http://www.w3.org/2000/svg" width="14" height="14.006" viewBox="0 0 14 14.006"><defs><style>.a{fill:#7e8190;}</style></defs><path class="a" d="M13.962,4.068c-.005-.005-.007-.013-.012-.018s-.013-.007-.018-.012a6.985,6.985,0,0,0-9.863,0c-.006.005-.013.007-.018.012s-.007.013-.012.018a7,7,0,1,0,9.923,0ZM9,14.6a5.589,5.589,0,0,1-4.364-2.1H7.446a2.075,2.075,0,0,0,3.108,0h2.811A5.589,5.589,0,0,1,9,14.6Zm-.7-3.5a.7.7,0,1,1,.7.7.7.7,0,0,1-.7-.7Zm5.887,0H11.1A2.1,2.1,0,0,0,9.7,9.129V6.9a.7.7,0,0,0-1.4,0V9.129A2.1,2.1,0,0,0,6.9,11.1H3.813a5.552,5.552,0,0,1-.364-1.4H4.1a.7.7,0,1,0,0-1.4H3.449A5.566,5.566,0,0,1,4.582,5.571l.458.458a.7.7,0,1,0,.99-.99l-.458-.458A5.567,5.567,0,0,1,8.3,3.449V4.1a.7.7,0,0,0,1.4,0V3.449a5.567,5.567,0,0,1,2.728,1.133l-.458.458a.7.7,0,0,0,.99.99l.458-.458A5.566,5.566,0,0,1,14.551,8.3H13.9a.7.7,0,1,0,0,1.4h.651A5.552,5.552,0,0,1,14.187,11.1Z" transform="translate(-2 -2)"/></svg>