<svg xmlns="http://www.w3.org/2000/svg" xmlns:xlink="http://www.w3.org/1999/xlink" width="18.004" height="20.571" viewBox="0 0 18.004 20.571">  
  <g id="icon_bell">
    <g id="bell">
      <path id="Shape" d="M9,20.571A2.574,2.574,0,0,1,6.431,18H2.69A2.684,2.684,0,0,1,.2,16.331,2.725,2.725,0,0,1,.91,13.3c.682-.673,1.388-1.37,1.388-4.664a6.713,6.713,0,0,1,5.644-6.62,1.286,1.286,0,1,1,2.12,0,6.713,6.713,0,0,1,5.644,6.62c0,3.292.706,3.99,1.388,4.664a2.725,2.725,0,0,1,.71,3.035A2.684,2.684,0,0,1,15.313,18h-3.74A2.575,2.575,0,0,1,9,20.571ZM8.038,18a.964.964,0,0,0,1.928,0ZM9,3.857A4.781,4.781,0,0,0,4.226,8.633a10.822,10.822,0,0,1-.605,4.107,5.954,5.954,0,0,1-1.467,2.038.759.759,0,0,0,.536,1.293H15.313a.759.759,0,0,0,.536-1.293c-1.019-1.02-2.072-2.075-2.072-6.145A4.781,4.781,0,0,0,9,3.857Z"/>
    </g>
  </g>
</svg>
