<svg xmlns="http://www.w3.org/2000/svg" width="24" height="24" viewBox="0 0 24 24">
    <path fill="#828292" fill-rule="evenodd" d="M18.404 4C19.84 4 21 5.184 21 6.642c0 1.457-1.16 2.641-2.596 2.641a2.602 2.602 0 0 1-2.47-1.83h-4.28a2.602 2.602 0 0 1-2.472 1.83 2.559 2.559 0 0 1-1.717-.66 2.638 2.638 0 0 1-.537-.67c-1.414.752-2.323 2.256-2.323 3.916 0 1.66.91 3.164 2.323 3.917l.096-.158a2.584 2.584 0 0 1 2.158-1.173c1.142 0 2.13.756 2.471 1.83h5.594l-.694-.707a.819.819 0 0 1 0-1.144.796.796 0 0 1 1.14 0l2.05 2.091c.31.317.31.827 0 1.144l-2.05 2.09a.796.796 0 0 1-1.14 0 .819.819 0 0 1 0-1.143l.694-.707h-5.594a2.602 2.602 0 0 1-2.47 1.83c-1.32 0-2.416-1.004-2.576-2.31C4.433 16.488 3 14.305 3 11.869c0-2.435 1.433-4.618 3.607-5.56C6.767 5.005 7.863 4 9.182 4c1.142 0 2.13.755 2.471 1.83h4.28A2.602 2.602 0 0 1 18.404 4zM9.2 16a1.1 1.1 0 1 0 0 2.2 1.1 1.1 0 0 0 0-2.2zm0-10.5a1.1 1.1 0 1 0 0 2.2 1.1 1.1 0 0 0 0-2.2zm9.2 0a1.1 1.1 0 1 0 0 2.2 1.1 1.1 0 0 0 0-2.2z"/>
</svg>
