<svg xmlns="http://www.w3.org/2000/svg" width="21" height="20" viewBox="0 0 21 20">
    <path fill="#3E3F44" fill-rule="evenodd" d="M10 2.5c4.577 0 8.333 3.032 8.333 6.864 0 1.418-.514 2.76-1.475 3.901l-.164.188.328 2.767c.101.86-.764 1.516-1.58 1.199l-3.536-1.373c-.697.122-1.314.182-1.906.182-4.577 0-8.333-3.033-8.333-6.864C1.667 5.532 5.423 2.5 10 2.5zm0 1.232c-3.936 0-7.085 2.541-7.085 5.632 0 3.09 3.149 5.632 7.085 5.632.559 0 1.154-.062 1.854-.192l.177-.033 3.734 1.45-.378-3.197.205-.21c.978-.997 1.493-2.188 1.493-3.45 0-3.09-3.149-5.632-7.085-5.632zm.652 6.156c.419 0 .758.334.758.747 0 .412-.34.747-.758.747h-3.26a.753.753 0 0 1-.758-.747c0-.413.34-.747.758-.747h3.26zm1.956-2.542c.418 0 .758.334.758.747s-.34.747-.758.747H7.392a.753.753 0 0 1-.758-.747c0-.413.34-.747.758-.747h5.216z"/>
</svg>
