<svg xmlns="http://www.w3.org/2000/svg" width="25" height="24" viewBox="0 0 25 24">
    <path fill="#3E3F44" fill-rule="evenodd" d="M12.309 2c5.523 0 10 4.477 10 10s-4.477 10-10 10-10-4.477-10-10 4.477-10 10-10zm0 1.818a8.182 8.182 0 1 0 0 16.364 8.182 8.182 0 0 0 0-16.364zm0 12.24a.942.942 0 1 1 0 1.884.942.942 0 0 1 0-1.884zm-.004-10c.763 0 1.508.288 2.087.805a2.955 2.955 0 0 1 1.001 2.2c0 .79-.178 1.432-.515 1.909a2.813 2.813 0 0 1-.44.487c-.123.11-.579.46-.54.428l.02-.016c-.314.247-.46.407-.593.678-.184.376-.287.915-.288 1.681.037.435-.31.854-.729.854s-.766-.42-.73-.834c0-1.026.15-1.814.45-2.427.247-.506.567-.863 1.02-1.219l.275-.214c.094-.073.16-.127.215-.178.073-.066.128-.126.17-.185.152-.216.221-.468.221-.963 0-.385-.162-.724-.47-1a1.793 1.793 0 0 0-1.154-.44c-.768 0-1.492.604-1.639 1.251-.09.408-.508.686-.896.578-.38-.105-.62-.553-.525-.949a3.156 3.156 0 0 1 3.06-2.446z"/>
</svg>
