<svg xmlns="http://www.w3.org/2000/svg" width="57" height="57" viewBox="0 0 57 57"><g transform="translate(-472.865 -43)"><circle fill="#7e8190" cx="28.5" cy="28.5" r="28.5" transform="translate(472.865 43)"/><g transform="translate(-84.135 -13)"><path fill="#FFF" d="M35.335,31.765A6.687,6.687,0,0,0,42,25.1V13.667a6.667,6.667,0,0,0-13.335,0V25.1A6.687,6.687,0,0,0,35.335,31.765Zm-2.857-18.1h5.715a.952.952,0,0,1,0,1.9H32.477a.952.952,0,0,1,0-1.9Zm0,4.762h5.715a.952.952,0,0,1,0,1.9H32.477a.952.952,0,0,1,0-1.9Zm0,4.762h5.715a.952.952,0,0,1,0,1.9H32.477a.952.952,0,0,1,0-1.9Zm16.192-1.9V25.1A13.322,13.322,0,0,1,36.287,38.385v7.668h4.286a.952.952,0,1,1,0,1.9H29.144a.952.952,0,0,1,0-1.9h5.239V38.385A13.356,13.356,0,0,1,22,25.1v-3.81a.952.952,0,0,1,1.9,0v1.9h2.857v1.9H23.9a11.43,11.43,0,0,0,22.86,0H43.907v-1.9h2.857v-1.9a.952.952,0,1,1,1.9,0Z" transform="translate(550 57)"/></g></g></svg>
