<svg xmlns="http://www.w3.org/2000/svg" width="28" height="28" viewBox="0 0 28 28">
    <path fill="#455CC7" fill-rule="evenodd" d="M22.167 3.5A2.333 2.333 0 0 1 24.5 5.833v16.334a2.34 2.34 0 0 1-2.333 2.333H5.833A2.333 2.333 0 0 1 3.5 22.167V5.833A2.333 2.333 0 0 1 5.833 3.5zm0 4.667H5.833V21A1.17 1.17 0 0 0 7 22.167h14A1.17 1.17 0 0 0 22.167 21V8.167zM17.5 10.5c.644 0 1.167.522 1.167 1.167v1.166h1.166a1.167 1.167 0 0 1 0 2.334h-1.166v1.166a1.167 1.167 0 0 1-2.334 0v-1.166h-1.166a1.167 1.167 0 0 1 0-2.334h1.166v-1.166c0-.645.523-1.167 1.167-1.167z"/>
</svg>
