<svg xmlns="http://www.w3.org/2000/svg" width="20" height="20" viewBox="0 0 20 20">
    <path fill="#828292" fill-rule="evenodd" d="M9.071 2.5c2.026 0 3.668 1.673 3.668 3.737 0 1.738-1.164 3.198-2.742 3.616l3.246 3.581c.43-.76.663-1.657.663-2.63 0-.459.365-.83.815-.83.45 0 .816.371.816.83 0 1.449-.404 2.802-1.137 3.907l1.217 1.342a.841.841 0 0 1-.046 1.174.804.804 0 0 1-1.078.025l-.074-.072-1.107-1.222c-.991.866-2.279 1.424-3.79 1.523-3.708.243-5.617-1.884-5.326-4.287.193-1.601 1.578-3.03 3.112-3.68a3.746 3.746 0 0 1-1.905-3.277c0-2.064 1.642-3.737 3.668-3.737zM5.814 13.396c-.175 1.442 1.492 2.695 3.708 2.424 1.054-.129 1.953-.522 2.658-1.11l-3.511-3.878c-1.14.188-2.7 1.274-2.855 2.564zM9.07 4.161c-1.125 0-2.038.93-2.038 2.076S8.33 8.313 9.071 8.313c.741 0 2.038-.93 2.038-2.076 0-1.147-.913-2.076-2.038-2.076z"/>
</svg>
