<svg xmlns="http://www.w3.org/2000/svg" width="20" height="20" viewBox="0 0 20 20">
    <path fill="#3E3F44" fill-rule="evenodd" d="M16.08 8.98a.833.833 0 0 1 1.173 1.184L11.36 16c-2.032 2-5.298 2-7.33 0a5.064 5.064 0 0 1-.001-7.251l5.19-5.144a3.878 3.878 0 0 1 5.422 0 3.765 3.765 0 0 1 .002 5.372L9.92 13.659a2.509 2.509 0 0 1-3.546 0 2.447 2.447 0 0 1 0-3.528l4.018-3.955a.833.833 0 0 1 1.169 1.187L7.542 11.32a.782.782 0 0 0 0 1.153c.346.34.863.34 1.206.002l4.723-4.683c.84-.827.84-2.171 0-2.999a2.21 2.21 0 0 0-3.08-.001L5.198 9.935a3.398 3.398 0 0 0 0 4.877 3.559 3.559 0 0 0 4.99.002l5.892-5.835z"/>
</svg>
