<svg xmlns="http://www.w3.org/2000/svg" width="20" height="20" viewBox="0 0 20 20">
    <path fill="#3E3F44" fill-rule="evenodd" d="M16.818 2.5c.377 0 .682.305.682.682v13.636a.682.682 0 0 1-.682.682H3.182a.682.682 0 0 1-.682-.682V3.182c0-.377.305-.682.682-.682h13.636zm-.682 1.364H3.864v12.272h12.272V3.864zm-3.905 10.723a.682.682 0 1 1 0-1.364h.149l-.709-1.984H8.328l-.709 1.984h.15c.342 0 .625.252.674.581l.007.101a.682.682 0 0 1-.681.682H5.537a.682.682 0 0 1 0-1.364h.634l2.63-7.357a.682.682 0 0 1 .535-.444l.106-.009h1.116c.288 0 .545.181.642.453l2.628 7.357h.635c.342 0 .626.252.674.581l.008.101a.682.682 0 0 1-.682.682zm-2.154-7.81h-.154L8.815 9.876h2.369l-1.107-3.1z"/>
</svg>
