<svg xmlns="http://www.w3.org/2000/svg" width="36" height="40" viewBox="0 0 36 40">
    <g fill="none" fill-rule="nonzero">
        <path fill="#FF5B6A" d="M.55 17.656C.55 7.905 8.457 0 18.208 0c2.392 0 4.672.476 6.752 1.338 5.685 2.354 9.872 7.593 10.738 13.891.11.793.166 1.603.166 2.427 0 9.751-7.905 17.656-17.656 17.656C8.457 35.312.55 27.407.55 17.656z"/>
        <path fill="#FFC766" d="M31.022 14.203c-2.1.756-9.046 5.719-9.698 7.472-2.277 6.125-1.89 9.986.69 13.682 2.582 3.695.779 5.004-1.23 4.363-2.009-.64-4.32-3.39-6.932-8.248l-7.497 4.594c-1.073.64-1.965.537-2.678-.31-.712-.848-.616-1.837.288-2.967-1.04-.337-1.658-.776-1.854-1.317-.196-.541-.015-1.268.542-2.181-.947-.724-1.28-.676-1.637-1.416-.357-.74-.046-1.95.44-2.884C.09 23.986.281 23.065.1 22.23c-.182-.837-.725-3.034 7.02-7.304 1.008-.556 6.959-1.278 7.848-3.827.21-.605-.348-1.809.038-2.106 3.37-2.6 6.702-5.14 9.23-7.012C26 .674 37.482 11.877 31.023 14.203z"/>
        <path fill="#4741FA" d="M14.565 8.22l4.254-2.816 6.14-4.066c5.685 2.355 9.872 7.593 10.738 13.891l-7.127 4.72-4.338 2.872c-.5.331-1.173.194-1.504-.307l-8.47-12.788a1.086 1.086 0 0 1 .307-1.505z"/>
        <path fill="#4E74F0" d="M14.565 8.22l4.254-2.816 9.751 14.544-4.338 2.873c-.5.331-1.173.194-1.504-.307l-8.47-12.788a1.087 1.087 0 0 1 .307-1.505z"/>
        <g fill="#4E74F0">
            <path d="M3.93 32.176l3.356-1.795a1.087 1.087 0 0 1 1.386.311l-2.645 1.712c-.006-.011-.019-.019-.033-.013a2.301 2.301 0 0 1-2.063-.215zM2.45 28.584l3.282-1.755a1.086 1.086 0 0 1 1.386.311l-2.645 1.712-.114.053a.049.049 0 0 0-.064-.012 2.407 2.407 0 0 1-1.845-.308zM1.287 24.408l2.89-1.546a1.088 1.088 0 0 1 1.387.312l-2.292 1.482a.036.036 0 0 0-.045.002 2.24 2.24 0 0 1-1.94-.25z"/>
        </g>
    </g>
</svg>
