<svg xmlns="http://www.w3.org/2000/svg" width="24" height="24" viewBox="0 0 24 24">
    <path fill="#828292" fill-rule="evenodd" d="M20.182 9.627c.452 0 .818.36.818.804v8.558c0 1.11-.916 2.011-2.045 2.011H8.008a.811.811 0 0 1-.819-.804v-.403c0-.222.184-.402.41-.402h10.946c.452 0 .819-.36.819-.804v-8.558c0-.222.183-.402.409-.402h.409zM16.09 3c.908 0 1.636.724 1.636 1.609v11.453c0 .885-.736 1.609-1.636 1.609H4.636c-.908 0-1.636-.724-1.636-1.609V4.61C3 3.724 3.728 3 4.636 3zm0 3.218H4.636v9.04c0 .442.369.804.819.804h9.818c.45 0 .818-.362.818-.804v-9.04z"/>
</svg>
