<svg xmlns="http://www.w3.org/2000/svg" width="18" height="18" viewBox="0 0 18 18">
    <path fill="#3E3F44" fill-rule="evenodd" d="M14.365 2.457a.714.714 0 0 1 1.005 0 8.553 8.553 0 0 1 0 12.341.7.7 0 0 1-.493.202.745.745 0 0 1-.512-.202.662.662 0 0 1 0-.973 7.198 7.198 0 0 0 0-10.395.662.662 0 0 1 0-.973zm-11.735 0a.714.714 0 0 1 1.005 0 .662.662 0 0 1 0 .973 7.198 7.198 0 0 0 0 10.395.662.662 0 0 1 0 .973.78.78 0 0 1-.512.202.734.734 0 0 1-.493-.202 8.553 8.553 0 0 1 0-12.341zm2.332 2.277a.714.714 0 0 1 1.005 0 .662.662 0 0 1 0 .973c-1.668 1.616-1.65 4.243.019 5.859a.662.662 0 0 1 0 .973.7.7 0 0 1-.493.202.745.745 0 0 1-.512-.202c-2.237-2.167-2.237-5.656-.019-7.805zm7.052-.018a.714.714 0 0 1 1.005 0 5.416 5.416 0 0 1 1.668 3.911c.02 1.47-.587 2.865-1.668 3.894a.7.7 0 0 1-.493.202.745.745 0 0 1-.512-.202.662.662 0 0 1 0-.974 3.99 3.99 0 0 0 1.251-2.92 4.03 4.03 0 0 0-1.25-2.938.662.662 0 0 1 0-.973zM9 6.35c1.298 0 2.35 1.02 2.35 2.277 0 1.258-1.052 2.278-2.35 2.278s-2.35-1.02-2.35-2.278C6.65 7.37 7.701 6.35 9 6.35z"/>
</svg>
