<svg xmlns="http://www.w3.org/2000/svg" width="21" height="21" viewBox="0 0 21 21">
    <path fill="#ADB1C9" fill-rule="evenodd" d="M15.251 2.666c.458 0 .833.375.833.833v.833h.834c.916 0 1.666.75 1.666 1.667v11.67c0 .917-.75 1.667-1.666 1.667H3.584c-.916 0-1.666-.75-1.666-1.667V6c0-.917.75-1.667 1.666-1.667h.834V3.5c0-.458.375-.833.833-.833.458 0 .833.375.833.833v.833h8.334V3.5c0-.458.375-.833.833-.833zm1.667 5.833H3.584v8.337c0 .458.375.833.834.833h11.666a.836.836 0 0 0 .834-.833V8.5zm-2.084 1.667c.23 0 .417.186.417.416v2.5c0 .23-.187.417-.417.417h-2.5a.417.417 0 0 1-.416-.417v-2.5c0-.23.186-.416.416-.416h2.5z"/>
</svg>
