<svg xmlns="http://www.w3.org/2000/svg" width="55" height="54" viewBox="0 0 55 54">
    <g fill="none" fill-rule="evenodd" stroke="#000">
        <g stroke-width="1.185">
            <path d="M15.464 25.413s.61-9.077 2.778-9.077h9.432m0 0h9.434c1.636 0 2.547 4.786 2.65 5.76"/>
            <path d="M21.007 18.08c-1.323-.078-1.993.136-1.993.136s-.868.249-.868 2.077M39.885 25.473h-18.05M23.051 16.2v-3.004h9.245v.88M27.676 33.028h-1.168M27.672 33.028h1.168M21.01 30.629h-4.055v2.303h5.42v-.893M38.393 31.78v1.152h-5.42v-2.303h3.865"/>
            <path d="M15.465 25.412l-2.998 3.303a2.664 2.664 0 0 0-.691 1.79v4.166a2.663 2.663 0 0 0 2.663 2.664h13.185M39.883 25.412l2.998 3.303c.445.49.691 1.128.691 1.79v4.166a2.663 2.663 0 0 1-2.663 2.664H27.724M13.975 37.335v1.875a2.663 2.663 0 0 0 2.663 2.663h.62a2.406 2.406 0 0 0 2.407-2.405M41.374 39.34a2.533 2.533 0 0 1-2.533 2.533h-.494a2.663 2.663 0 0 1-2.664-2.663v-1.875"/>
        </g>
        <path stroke-linecap="round" stroke-width="1.5" d="M40.87 1.188H14.477A13.319 13.319 0 0 0 1.16 14.504v24.823M14.477 52.643H40.87a13.319 13.319 0 0 0 13.317-13.316V14.504"/>
    </g>
</svg>
