<svg
  xmlns="http://www.w3.org/2000/svg"
  width="18"
  height="18"
  viewBox="0 0 18 18"
>
  <g fill="none" fillRule="evenodd">
    <path d="M0 0h18v18H0z"></path>
    <path
      fill="#F7404E"
      d="M7.667 13.05a.67.67 0 0 0 .666-.675v-4.05a.67.67 0 0 0-.666-.675.67.67 0 0 0-.667.675v4.05a.67.67 0 0 0 .667.675zm6.666-8.1h-2.666v-.675c0-.537-.21-1.052-.586-1.432a1.988 1.988 0 0 0-1.414-.593H8.334c-1.105 0-2 .907-2 2.025v.675H3.667A.671.671 0 0 0 3 5.625c0 .373.299.675.667.675h.666v7.425c0 1.118.896 2.025 2 2.025h5.334c1.104 0 2-.907 2-2.025V6.3h.666A.671.671 0 0 0 15 5.625a.671.671 0 0 0-.667-.675zm-6.666-.675c0-.179.07-.35.195-.477a.662.662 0 0 1 .471-.198h1.334c.177 0 .346.071.471.198a.679.679 0 0 1 .195.477v.675H7.667v-.675zm4.666 9.45a.67.67 0 0 1-.666.675H6.334a.67.67 0 0 1-.666-.675V6.3h6.666v7.425zm-2-.675c.177 0 .347-.07.472-.197a.679.679 0 0 0 .195-.478v-4.05a.671.671 0 0 0-.666-.675.671.671 0 0 0-.667.675v4.05c0 .179.07.35.195.477a.662.662 0 0 0 .472.198z"
    ></path>
  </g>
</svg>