<svg xmlns="http://www.w3.org/2000/svg" width="16" height="16" viewBox="0 0 16 16">
    <g fill="none" fill-rule="evenodd">
        <path d="M-1.059-1.059H13.06V13.06H-1.06z"/>
        <path fill="#828292" d="M4.954 9.176a.526.526 0 0 0 .523-.53V5.47a.526.526 0 0 0-.523-.529.526.526 0 0 0-.522.53v3.176c0 .292.234.53.522.53zm5.229-6.353H8.092v-.529c0-.421-.166-.825-.46-1.123A1.559 1.559 0 0 0 6.523.706H5.478c-.867 0-1.569.71-1.569 1.588v.53H1.817a.526.526 0 0 0-.523.529c0 .292.234.53.523.53h.523v5.823c0 .877.702 1.588 1.568 1.588h4.184c.866 0 1.568-.71 1.568-1.588V3.882h.523a.526.526 0 0 0 .523-.53.526.526 0 0 0-.523-.529zm-5.229-.529c0-.14.055-.275.153-.374a.52.52 0 0 1 .37-.155h1.046a.52.52 0 0 1 .37.155c.098.1.153.234.153.374v.53H4.954v-.53zm3.66 7.412c0 .292-.234.53-.522.53H3.909a.526.526 0 0 1-.523-.53V3.882h5.229v5.824zm-1.568-.53a.52.52 0 0 0 .37-.154.533.533 0 0 0 .153-.375V5.47a.526.526 0 0 0-.523-.529.526.526 0 0 0-.523.53v3.176c0 .14.055.275.153.374a.52.52 0 0 0 .37.155z"/>
    </g>
</svg>
