<svg xmlns="http://www.w3.org/2000/svg" width="18" height="18" viewBox="0 0 18 18">
    <path fill="#3E3F44" fill-rule="evenodd" d="M9.484 1.515l.145.01a7.486 7.486 0 0 1 .733.098 7.502 7.502 0 0 1-.64 14.843l-.239.019a7.5 7.5 0 1 1-.148-14.977l.149.007zM3.158 7.658A6.088 6.088 0 0 0 3 9a6.076 6.076 0 0 0 .039.686l-.014-.134c.009.093.02.185.032.277l-.018-.143c.008.074.018.148.029.22l-.011-.077c.01.068.02.136.032.204l-.021-.126c.012.077.025.153.04.23l-.02-.104.03.16-.01-.057c.014.075.03.15.047.224l-.036-.166c.019.094.04.187.063.279l-.027-.113c.015.067.032.133.05.199l-.023-.086a5.953 5.953 0 0 0 .161.533l-.043-.128a5.96 5.96 0 0 0 .288.716l-.038-.08a5.995 5.995 0 0 0 4.7 3.434V13.5c-.825 0-1.5-.675-1.5-1.5v-.75zm8.093-4.221l-.001.313c0 .825-.675 1.5-1.5 1.5h-1.5v1.5c0 .412-.338.75-.75.75H6V9h4.5c.412 0 .75.338.75.75V12H12c.675 0 1.23.435 1.425 1.043a5.979 5.979 0 0 0 1.52-3.232l-.01.07c.014-.092.025-.184.035-.277l-.024.207c.012-.092.022-.184.03-.277l-.006.07c.008-.077.014-.155.019-.233l-.012.163C14.992 9.358 15 9.18 15 9l-.003.156L15 9c0-.17-.013-.337-.031-.502l-.029-.248h.014a6.006 6.006 0 0 0-3.703-4.813z"/>
</svg>
