<svg xmlns="http://www.w3.org/2000/svg" width="55" height="54" viewBox="0 0 55 54">
    <g fill="none" fill-rule="evenodd" stroke="#000">
        <path stroke-linecap="round" stroke-width="1.5" d="M40.792 1.19H14.399A13.319 13.319 0 0 0 1.082 14.508V39.33M14.4 52.646h26.392A13.319 13.319 0 0 0 54.109 39.33V14.507"/>
        <g stroke-width="1.185">
            <path d="M18.817 22.122l1.01.055c.538.03 1.008.386 1.183.9.526 1.516 1.587 4.668 2.126 6.245.189.56.726.926 1.318.902 1.997-.08 6.53-.258 8.696-.345a1.332 1.332 0 0 0 1.284-1.257l.126-2.318a1.389 1.389 0 0 0-.336-.96 1.342 1.342 0 0 0-.922-.44l-9.476-.515M26.47 33.263c0 .727-.59 1.317-1.315 1.317a1.317 1.317 0 0 1 0-2.632M32.642 34.58a.967.967 0 0 1 0-1.932c.532 0 .89.28.89.813"/>
            <g>
                <path d="M42.647 35.036V20.018a7.515 7.515 0 0 0-7.517-7.51H20.117c-4.132 0-7.497 3.364-7.497 7.51"/>
            </g>
            <g>
                <path d="M12.62 28.836v6.2c0 4.144 3.365 7.508 7.497 7.508H35.13"/>
            </g>
        </g>
    </g>
</svg>
