<svg xmlns="http://www.w3.org/2000/svg" width="18" height="18" viewBox="0 0 18 18">
    <path fill="#3E3F44" fill-rule="evenodd" d="M11.362 1.5c.438 0 .85.154 1.177.438l.095.089 3.34 3.338c.31.311.494.718.522 1.153l.004.12v4.722c0 .438-.154.85-.438 1.177l-.089.095-3.336 3.341a1.789 1.789 0 0 1-1.156.523l-.12.004h-4.72c-.438 0-.85-.154-1.177-.438l-.095-.089-3.342-3.338a1.788 1.788 0 0 1-.523-1.155l-.004-.12V6.64c0-.438.154-.85.438-1.177l.089-.095 3.339-3.341a1.788 1.788 0 0 1 1.153-.523l.12-.004h4.723zm0 1.2h-4.72a.584.584 0 0 0-.365.123l-.06.053-3.341 3.338a.6.6 0 0 0-.171.345l-.006.079v4.722c0 .135.043.261.124.366l.053.06 3.339 3.338a.592.592 0 0 0 .346.172l.08.005h4.723a.592.592 0 0 0 .366-.124l.06-.053 3.34-3.338a.592.592 0 0 0 .171-.346l.005-.08V6.64a.592.592 0 0 0-.123-.366l-.053-.06-3.34-3.337a.605.605 0 0 0-.428-.178zM9.75 10.5V12h-1.5v-1.5h1.5zM9 6c.412 0 .75.338.75.75v1.5c0 .412-.338.75-.75.75a.752.752 0 0 1-.75-.75v-1.5c0-.412.338-.75.75-.75z"/>
</svg>
