<svg xmlns="http://www.w3.org/2000/svg" width="36" height="40" viewBox="0 0 36 40">
    <g fill="none" fill-rule="nonzero">
        <path fill="#2AD082" d="M35.35 22.344C35.35 32.095 27.445 40 17.694 40c-2.392 0-4.672-.476-6.752-1.338C5.257 36.308 1.07 31.07.204 24.771a17.655 17.655 0 0 1-.166-2.427c0-9.751 7.905-17.656 17.656-17.656 9.75 0 17.656 7.905 17.656 17.656z"/>
        <path fill="#FFC766" d="M4.879 25.797c2.1-.756 9.046-5.719 9.698-7.472 2.277-6.125 1.89-9.986-.69-13.682C11.304.948 13.107-.36 15.116.28c2.008.64 4.319 3.39 6.932 8.248l7.497-4.594c1.072-.64 1.965-.537 2.677.31.713.848.617 1.837-.287 2.967 1.04.337 1.657.776 1.853 1.317.196.541.016 1.268-.542 2.181.948.724 1.28.676 1.637 1.416.357.74.047 1.95-.44 2.884 1.367 1.005 1.176 1.926 1.358 2.762.182.837.724 3.034-7.02 7.304-1.008.556-6.96 1.278-7.848 3.827-.21.605.348 1.809-.038 2.106-3.37 2.6-6.703 5.14-9.23 7.012-1.764 1.306-13.246-9.897-6.787-12.223z"/>
        <path fill="#4741FA" d="M21.336 31.78l-4.254 2.816-6.14 4.066C5.257 36.307 1.07 31.07.204 24.771l7.126-4.72 4.338-2.872a1.085 1.085 0 0 1 1.505.307l8.47 12.788c.33.5.193 1.173-.307 1.505z"/>
        <path fill="#4E74F0" d="M21.336 31.78l-4.254 2.816L7.33 20.052l4.338-2.873a1.085 1.085 0 0 1 1.505.307l8.47 12.788c.33.5.193 1.173-.307 1.505z"/>
        <g fill="#4E74F0">
            <path d="M31.97 7.824L28.615 9.62a1.087 1.087 0 0 1-1.386-.311l2.645-1.712c.006.011.019.019.033.013a2.301 2.301 0 0 1 2.063.215zM33.45 11.416L30.17 13.17a1.086 1.086 0 0 1-1.386-.311l2.644-1.712.115-.053c.014.02.043.026.064.012a2.407 2.407 0 0 1 1.845.308zM34.614 15.592l-2.89 1.546a1.088 1.088 0 0 1-1.387-.312l2.292-1.482c.011.009.03.01.045-.002a2.24 2.24 0 0 1 1.94.25z"/>
        </g>
    </g>
</svg>
