<svg xmlns="http://www.w3.org/2000/svg" width="55" height="54" viewBox="0 0 55 54">
    <g fill="none" fill-rule="evenodd" stroke="#000">
        <path stroke-linecap="round" stroke-width="1.5" d="M40.83 1.19H14.436A13.319 13.319 0 0 0 1.12 14.508V39.33M14.437 52.646h26.392A13.319 13.319 0 0 0 54.146 39.33V14.507"/>
        <g stroke-width="1.185">
            <path d="M34.501 33.753v1.914h2.015c3.346 0 6.078-2.72 6.078-6.07v-1.611c0-3.35-2.732-6.07-6.078-6.07H34.5v6.875M20.764 29.784v5.883H18.75c-3.347 0-6.079-2.72-6.079-6.07v-1.611c0-3.35 2.732-6.07 6.079-6.07h2.014v2.008"/>
            <path d="M16.727 22.337s-1.365-10.734 10.825-10.734 10.996 10.784 10.996 10.784M17.906 35.667v5.51h5.531V42.7h5.584v-2.946h-4.013"/>
        </g>
    </g>
</svg>
