<svg xmlns="http://www.w3.org/2000/svg" width="18" height="18" viewBox="0 0 18 18">
    <path fill="#ADB1C9" fill-rule="evenodd" d="M14.216 8.866c.338.077.55.419.478.74l-.003 5.088a1.322 1.322 0 0 1-1.282 1.056h-8.86c-.617 0-1.15-.44-1.285-1.08V9.618l-.01-.078a.639.639 0 0 1 .488-.673c.338-.078.673.141.75.51l-.002 5.042c.006.03.031.05.059.05h8.86a.08.08 0 0 0 .057-.027l.002-5.088a.626.626 0 0 1 .748-.487zM9 7.472c1.486 0 2.688 1.237 2.688 2.761s-1.202 2.76-2.688 2.76c-1.486 0-2.688-1.236-2.688-2.76 0-1.524 1.202-2.76 2.688-2.76zm0 1.282c-.792 0-1.436.661-1.436 1.48 0 .817.644 1.478 1.436 1.478.792 0 1.436-.661 1.436-1.479 0-.818-.644-1.48-1.436-1.48zm.405-6.359l6.867 5.577a.65.65 0 0 1 .087.9.617.617 0 0 1-.883.09L9 3.711 2.513 8.97a.617.617 0 0 1-.881-.11.65.65 0 0 1 .108-.898l6.882-5.575a.615.615 0 0 1 .783.008z"/>
</svg>
