<svg xmlns="http://www.w3.org/2000/svg" width="18" height="18" viewBox="0 0 18 18">
    <path fill="#3E3F44" fill-rule="evenodd" d="M13.174 9.86l2.419 1.852c.21.16.21.478 0 .639l-2.419 1.85a.232.232 0 0 1-.372-.184v-.915a.375.375 0 0 0-.34-.374l-.945.002a.642.642 0 0 1-.355-.107l-.074-.058-1.698-1.527a.645.645 0 0 1 .79-1.012l.07.054 1.298 1.168c.116.104.26.169.413.188l.092.005h.032v-.004h.426c.14 0 .258-.1.285-.232l.006-.059v-1.1c0-.193.22-.303.372-.186zm0-6.062l2.419 1.851c.21.161.21.479 0 .64a29414725.337 29414725.337 0 0 1-2.419 1.85.232.232 0 0 1-.372-.185V7.04a.375.375 0 0 0-.374-.376h-.283a.756.756 0 0 0-.444.145l-.074.06L5.6 12.556a.643.643 0 0 1-.342.167l-.097.008-2.266.006a.644.644 0 0 1-.084-1.283l.08-.005 1.714-.005c.16 0 .315-.052.443-.145l.073-.061 6.028-5.686a.643.643 0 0 1 .344-.168l.097-.008h.92a.291.291 0 0 0 .284-.225l.008-.066v-1.1c0-.194.22-.303.372-.186z"/>
</svg>
