<svg width="255" height="144" viewBox="0 0 255 144" fill="none" xmlns="http://www.w3.org/2000/svg">
<path fill-rule="evenodd" clip-rule="evenodd" d="M7 30.5H2C1.586 30.5 1.21 30.668 0.94 30.94C0.668 31.21 0.5 31.586 0.5 32V143.5H8.5V32C8.5 31.586 8.332 31.21 8.06 30.94C7.92101 30.8005 7.75581 30.6897 7.5739 30.6142C7.392 30.5387 7.19696 30.4999 7 30.5V30.5Z" fill="#FBFBFF" stroke="#E2E2EC"/>
<path d="M80.154 64.25H39C37.3431 64.25 36 65.5931 36 67.25V87.206C36 88.8629 37.3431 90.206 39 90.206H80.154C81.8109 90.206 83.154 88.8629 83.154 87.206V67.25C83.154 65.5931 81.8109 64.25 80.154 64.25Z" fill="#45C777"/>
<rect x="37" y="68" width="46" height="24" rx="2" fill="white"/>
<mask id="mask0" mask-type="alpha" maskUnits="userSpaceOnUse" x="36" y="67" width="48" height="27">
<path d="M80.154 67.25H39C37.3431 67.25 36 68.5931 36 70.25V90.206C36 91.8629 37.3431 93.206 39 93.206H80.154C81.8109 93.206 83.154 91.8629 83.154 90.206V70.25C83.154 68.5931 81.8109 67.25 80.154 67.25Z" fill="white"/>
</mask>
<g mask="url(#mask0)">
<path d="M79.654 67.75H39.5C37.8431 67.75 36.5 69.0931 36.5 70.75V89.706C36.5 91.3629 37.8431 92.706 39.5 92.706H79.654C81.3109 92.706 82.654 91.3629 82.654 89.706V70.75C82.654 69.0931 81.3109 67.75 79.654 67.75Z" stroke="#D9DAE1"/>
<path fill-rule="evenodd" clip-rule="evenodd" d="M82.721 73.25V73.75H36V73.25H82.721Z" fill="#828292"/>
<path fill-rule="evenodd" clip-rule="evenodd" d="M77.746 83.256H82.937V89.313H77.747C77.6332 89.3131 77.5206 89.2908 77.4154 89.2473C77.3103 89.2039 77.2148 89.1401 77.1344 89.0596C77.0539 88.9792 76.9901 88.8837 76.9466 88.7786C76.9032 88.6734 76.8809 88.5608 76.881 88.447V84.121C76.881 83.644 77.268 83.256 77.746 83.256V83.256Z" fill="#D9DAE1"/>
</g>
<path d="M171 45H129.846C128.189 45 126.846 46.3431 126.846 48V67.956C126.846 69.6129 128.189 70.956 129.846 70.956H171C172.657 70.956 174 69.6129 174 67.956V48C174 46.3431 172.657 45 171 45Z" fill="#BF5AF2"/>
<mask id="mask1" mask-type="alpha" maskUnits="userSpaceOnUse" x="126" y="48" width="48" height="26">
<path d="M171 48H129.846C128.189 48 126.846 49.3431 126.846 51V70.956C126.846 72.6129 128.189 73.956 129.846 73.956H171C172.657 73.956 174 72.6129 174 70.956V51C174 49.3431 172.657 48 171 48Z" fill="white"/>
</mask>
<g mask="url(#mask1)">
<rect x="128" y="49" width="46" height="24" rx="2" fill="white"/>
<path d="M170.5 48.5H130.346C128.689 48.5 127.346 49.8431 127.346 51.5V70.456C127.346 72.1129 128.689 73.456 130.346 73.456H170.5C172.157 73.456 173.5 72.1129 173.5 70.456V51.5C173.5 49.8431 172.157 48.5 170.5 48.5Z" stroke="#D9DAE1"/>
<path fill-rule="evenodd" clip-rule="evenodd" d="M132.253 56.22H127.063V62.276H132.253C132.367 62.2761 132.479 62.2538 132.584 62.2104C132.689 62.167 132.785 62.1033 132.865 62.023C132.946 61.9427 133.01 61.8473 133.053 61.7422C133.097 61.6372 133.119 61.5247 133.119 61.411V57.085C133.119 56.607 132.731 56.219 132.253 56.219V56.22Z" fill="#D9DAE1"/>
<path fill-rule="evenodd" clip-rule="evenodd" d="M173.783 53.806V54.306H127.063V53.806H173.783Z" fill="#828292"/>
</g>
<path d="M80.558 86.56C80.558 86.56 94.162 86.15 103.052 79.315C112.584 71.987 117.816 58.235 129.565 59.307" stroke="#D9DAE1" stroke-width="0.649"/>
<path fill-rule="evenodd" clip-rule="evenodd" d="M253 0.5H2C1.586 0.5 1.21 0.668 0.94 0.94C0.667 1.21 0.5 1.585 0.5 2V13.5H254.5V2C254.5 1.586 254.332 1.21 254.06 0.94C253.921 0.80045 253.756 0.68974 253.574 0.61423C253.392 0.538721 253.197 0.499901 253 0.5V0.5ZM194.5 30.5H254.5V143.5H194.5V30.5Z" fill="#FBFBFF" stroke="#E2E2EC"/>
</svg>
