<svg xmlns="http://www.w3.org/2000/svg" width="20" height="20" viewBox="0 0 20 20">
    <path fill="#455CC7" fill-rule="evenodd" d="M10 3.333V1.842a.412.412 0 0 0-.708-.292L6.958 3.875a.413.413 0 0 0 0 .592l2.325 2.325a.422.422 0 0 0 .717-.3V5c2.758 0 5 2.242 5 5 0 .658-.125 1.3-.367 1.875a.8.8 0 0 0 .192.867.835.835 0 0 0 1.367-.284A6.523 6.523 0 0 0 16.667 10 6.665 6.665 0 0 0 10 3.333zM10 15c-2.758 0-5-2.242-5-5 0-.658.125-1.3.367-1.875a.8.8 0 0 0-.192-.867.835.835 0 0 0-1.367.284A6.523 6.523 0 0 0 3.333 10 6.665 6.665 0 0 0 10 16.667v1.491c0 .375.45.559.708.292l2.325-2.325a.413.413 0 0 0 0-.592l-2.325-2.325a.417.417 0 0 0-.708.3V15z"/>
</svg>
