<svg xmlns="http://www.w3.org/2000/svg" width="84.527" height="105.659" viewBox="0 0 84.527 105.659"><defs><style>.a{fill:#cad9fc;}.b{fill:#e8edfc;}.c{fill:#7facfa;}.d{fill:#a4c2f7;}.e{fill:#fff;}.f{fill:#455cc7;}</style></defs><g transform="translate(0 0)"><path class="a" d="M90.035,338.141A16.526,16.526,0,0,1,73.5,354.677L67.142,358.2H31.923l-6.357-3.522a16.54,16.54,0,0,1-1.426-33.018L33,320.884l5.3-.458h22.47l5.037.44,9.122.792A16.55,16.55,0,0,1,90.035,338.141Zm0,0" transform="translate(-7.269 -254.301)"/><path class="b" d="M84.752,338.141a16.524,16.524,0,0,1-16.535,16.536L61.859,358.2H31.923l-6.357-3.522a16.54,16.54,0,0,1-1.426-33.018L33,320.884l5.3-.458H55.484l5.037.44,9.122.792A16.55,16.55,0,0,1,84.752,338.141Zm0,0" transform="translate(-7.269 -254.301)"/><path class="a" d="M157.979,320.866l-9.228,12.679H134.664l-9.492-12.662,5.3-.458h22.47Zm0,0" transform="translate(-99.444 -254.301)"/><path class="c" d="M253.521,71.72s3.522-10.566,1.761-14.088A15.709,15.709,0,0,0,250,52.648L239.434,54.11l3.522,17.61L248.238,77Zm0,0" transform="translate(-190.126 -41.784)"/><path class="a" d="M134.852,146.322c1.215-.968,5.3-3.733,5.3,3.874,0,7.238-4.614,8.612-6.375,8.876H100.742c-1.761-.264-6.375-1.638-6.375-8.876,0-7.607,4.085-4.842,5.3-3.874Zm0,0" transform="translate(-74.996 -115.1)"/><path class="a" d="M120.107,430.186v7.045l-.608.871a16.51,16.51,0,0,1-5.362.89l-6.357,3.522H72.561L66.2,438.991a16.514,16.514,0,0,1-5.362-.89l-.607-.871v-7.045a3.522,3.522,0,0,1,3.522-3.522h52.829A3.522,3.522,0,0,1,120.107,430.186Zm0,0" transform="translate(-47.907 -338.616)"/><path class="b" d="M130.13,409.6v14.088a5.283,5.283,0,0,1-5.283,5.282H82.583a5.283,5.283,0,0,1-5.282-5.282V409.6" transform="translate(-61.452 -325.071)"/><path class="d" d="M170.22,286.069l-12.326,10.566-.687-.6-11.64-9.967a23.131,23.131,0,0,0,1.091-2.554,35.14,35.14,0,0,0,1.69-6.234c.229-1.216.388-2.343.493-3.328l18.085-.035a41.231,41.231,0,0,0,2.2,9.6A23.286,23.286,0,0,0,170.22,286.069Zm0,0" transform="translate(-115.63 -217.391)"/><path class="a" d="M164.937,302.283l-7.731,6.621-11.64-9.967a23.133,23.133,0,0,0,1.091-2.554,35.141,35.141,0,0,0,1.69-6.234l13.3-.018a41.248,41.248,0,0,0,2.2,9.6A23.122,23.122,0,0,0,164.937,302.283Zm0,0" transform="translate(-115.63 -230.26)"/><path class="b" d="M110.486,323.048l-7.044,5.282-17.61-17.609,7.044-3.522,5.283,5.283Zm0,0" transform="translate(-68.223 -243.804)"/><path class="b" d="M217.627,312.482l5.283-5.283,7.044,3.522-17.609,17.609-7.044-5.282Zm0,0" transform="translate(-163.037 -243.804)"/><path class="a" d="M155.185,69.9c0,.669,0,1.32-.018,1.954a53.418,53.418,0,0,1-1.356,12.679,29.523,29.523,0,0,1-1.937,5.407c-2.5,5.282-6.85,10.566-14.3,10.566a15.644,15.644,0,0,1-2.624-.229h-.035c-5.881-1.092-9.492-5.688-11.675-10.337a29.486,29.486,0,0,1-1.92-5.407,53.7,53.7,0,0,1-1.338-12.679c-.018-.422-.018-.845-.018-1.285V51.2l31.258,4.79C153.705,58.842,155.185,63.244,155.185,69.9Zm0,0" transform="translate(-95.312 -40.634)"/><path class="b" d="M149.9,73.017c0,.669,0,1.32-.017,1.954a53.419,53.419,0,0,1-1.357,12.679,29.524,29.524,0,0,1-1.937,5.407c-2.183,4.613-5.794,9.244-11.639,10.337h-.035c-5.881-1.092-9.492-5.688-11.675-10.337a29.487,29.487,0,0,1-1.92-5.407,53.7,53.7,0,0,1-1.338-12.679c-.018-.422-.018-.845-.018-1.285V55.125l25.975,3.98C148.422,61.958,149.9,66.36,149.9,73.017Zm0,0" transform="translate(-95.312 -43.749)"/><path class="d" d="M96.128,36.707A62.509,62.509,0,0,1,94.367,24.38c0-5.283,1.761-12.327,12.326-12.327s24.654,1.761,28.176-3.522c0,0,3.522,14.088-7.044,14.088S99.65,19.1,99.65,38.468Zm0,0" transform="translate(-74.996 -6.771)"/><path class="c" d="M241.464,22.62c-1.215,0-2.536-.053-3.91-.089,6.164-.827,6.5-7.237,6.128-11.094a8.012,8.012,0,0,0,4.825-2.906S252.03,22.62,241.464,22.62Zm0,0" transform="translate(-188.635 -6.771)"/><path class="e" d="M145.633,150.95l0,0c0-.029,0-.06,0-.089Zm0,0" transform="translate(-115.683 -119.731)"/><path class="e" d="M19.646,343.088c.177.068.36.118.539.18l.016.022c.158.055.323.094.484.144.189.058.376.117.568.168.28.076.563.139.848.2.184.039.365.083.551.116.243.043.492.073.739.106A5.265,5.265,0,0,0,28.4,347.7h5.283a5.267,5.267,0,0,1-5.008-3.678c-.247-.032-.495-.063-.739-.106-.185-.033-.367-.077-.55-.115-.285-.061-.569-.123-.849-.2-.191-.052-.379-.11-.568-.169-.16-.049-.326-.089-.484-.143l-.015-.023c-.179-.061-.364-.112-.539-.18a16.543,16.543,0,0,1,4.49-31.926l1.085-.1-.345-.346,3.522-1.761L31.92,307.2l-7.044,3.522.346.345-1.085.1a16.543,16.543,0,0,0-4.491,31.927Zm0,0" transform="translate(-7.267 -243.804)"/><path class="e" d="M94.367,55.411c0,7.238,4.613,8.612,6.375,8.876h.285a29.352,29.352,0,0,0,1.9,5.336,21.29,21.29,0,0,0,5.325,7.255h-.043c-.106.986-.264,2.113-.493,3.328a37.133,37.133,0,0,1-1.266,5.02l1.5,1.5,3.355-.29A35.139,35.139,0,0,0,113,80.206c.229-1.216.388-2.343.493-3.328h.042a21.3,21.3,0,0,1-5.325-7.255,29.412,29.412,0,0,1-1.9-5.336h-.285c-1.761-.264-6.375-1.638-6.375-8.876,0-3.491.863-4.786,1.912-5.083l-.151-.076A62.51,62.51,0,0,1,99.65,37.925c0-5.035,1.619-11.656,10.918-12.267-1.324-.035-2.625-.06-3.874-.06-10.566,0-12.326,7.044-12.326,12.327a62.509,62.509,0,0,0,1.761,12.327l.152.076C95.23,50.625,94.367,51.92,94.367,55.411Zm5.3-3.874,0,0,0-.086C99.667,51.477,99.667,51.508,99.667,51.537Zm0,0" transform="translate(-74.996 -20.315)"/><path class="f" d="M130.8,113.915c-6.859,0-12.367-4-15.928-11.577a31.159,31.159,0,0,1-2.033-5.72,55.005,55.005,0,0,1-1.393-13.094c-.016-.394-.018-.84-.018-1.305v-.352a1.761,1.761,0,1,1,3.522,0v.352c0,.415,0,.815.016,1.214a51.924,51.924,0,0,0,1.285,12.317,27.662,27.662,0,0,0,1.8,5.085c2.985,6.346,7.271,9.56,12.745,9.56,5.43,0,9.706-3.216,12.708-9.558a27.609,27.609,0,0,0,1.822-5.087,51.243,51.243,0,0,0,1.3-12.264c.018-.646.018-1.283.018-1.935,0-5.856-1.155-10.028-3.53-12.755a1.761,1.761,0,0,1,2.657-2.313c2.957,3.4,4.395,8.326,4.395,15.068,0,.685,0,1.353-.018,2a54.441,54.441,0,0,1-1.41,13.066,31.092,31.092,0,0,1-2.053,5.725C143.108,109.914,137.614,113.915,130.8,113.915Zm0,0" transform="translate(-88.538 -52.282)"/><path class="f" d="M93.971,154.07a1.8,1.8,0,0,1-.264-.019c-1.848-.277-7.875-1.865-7.875-10.617,0-1.313,0-5.311,2.631-6.579,1.555-.748,3.516-.276,5.528,1.327a1.761,1.761,0,0,1-2.194,2.755c-.978-.78-1.66-.951-1.813-.905.006,0-.63.547-.63,3.4,0,5.569,3.055,6.86,4.876,7.134a1.761,1.761,0,0,1-.26,3.5Zm0,0" transform="translate(-68.223 -108.338)"/><path class="f" d="M278.569,154.069a1.761,1.761,0,0,1-.26-3.5c1.821-.273,4.876-1.564,4.876-7.134,0-2.858-.636-3.4-.642-3.408-.156-.05-.824.133-1.8.912a1.761,1.761,0,1,1-2.194-2.755c2.013-1.6,3.977-2.076,5.527-1.327,2.631,1.268,2.631,5.266,2.631,6.579,0,8.753-6.026,10.339-7.873,10.617A1.827,1.827,0,0,1,278.569,154.069Zm0,0" transform="translate(-219.791 -108.336)"/><path class="e" d="M17.522,321.407A14.784,14.784,0,0,0,4.1,334.654c-.048.493-.07.986-.075,1.481H.5c.006-.611.033-1.222.093-1.831A18.306,18.306,0,0,1,17.219,317.9Zm0,0" transform="translate(-0.5 -252.296)"/><path class="f" d="M41.529,322.662a1.854,1.854,0,0,0,2.347.588,14.9,14.9,0,0,1,5.968-1.842l-.3-3.509a18.426,18.426,0,0,0-7.393,2.282,1.7,1.7,0,0,0-.619,2.481Zm0,0" transform="translate(-32.822 -252.296)"/><path class="f" d="M.5,386.379H4.022c.006-.495.027-.988.075-1.481a15.32,15.32,0,0,1,.242-1.553,1.863,1.863,0,0,0-1.271-2.062,1.7,1.7,0,0,0-2.176,1.341,18.71,18.71,0,0,0-.3,1.924C.533,385.157.506,385.768.5,386.379Zm0,0" transform="translate(-0.5 -302.54)"/><path class="f" d="M19.111,352.991a1.809,1.809,0,0,0,.306-1.208l-.069-.321a1.48,1.48,0,0,0-.138-.325,1.2,1.2,0,0,0-.169-.289,2.617,2.617,0,0,0-.237-.263,1.591,1.591,0,0,0-1.973-.178,1.906,1.906,0,0,0-.9,1.914,1.689,1.689,0,0,0,.3.638,1.664,1.664,0,0,0,.5.462,2.024,2.024,0,0,0,1.323.222A1.784,1.784,0,0,0,19.111,352.991Zm0,0" transform="translate(-12.727 -277.888)"/><path class="f" d="M75.491,321.039a1.761,1.761,0,0,1-.139-3.516l1.091-.088a1.761,1.761,0,1,1,.282,3.51l-1.092.088C75.585,321.036,75.538,321.039,75.491,321.039Zm0,0" transform="translate(-58.622 -251.921)"/><path class="f" d="M16.615,417.637a1.844,1.844,0,0,1-.231-.014A18.311,18.311,0,0,1,.5,399.5a1.761,1.761,0,0,1,3.522,0,14.78,14.78,0,0,0,12.819,14.632,1.761,1.761,0,0,1-.226,3.507Zm0,0" transform="translate(-0.5 -315.659)"/><path class="f" d="M318.265,353.92a1.761,1.761,0,0,1-.225-3.507,14.772,14.772,0,0,0-.686-29.359l-1.077-.087a1.761,1.761,0,0,1,.281-3.51l1.092.088a18.294,18.294,0,0,1,.845,36.361A1.7,1.7,0,0,1,318.265,353.92Zm0,0" transform="translate(-249.853 -251.942)"/><path class="f" d="M118.073,437.5H75.809a7.053,7.053,0,0,1-7.044-7.044V419.893a1.761,1.761,0,0,1,3.522,0V430.46a3.526,3.526,0,0,0,3.522,3.522h42.264a3.525,3.525,0,0,0,3.522-3.522V419.893a1.761,1.761,0,0,1,3.522,0V430.46A7.052,7.052,0,0,1,118.073,437.5Zm0,0" transform="translate(-54.678 -331.845)"/><path class="f" d="M151.12,291.517a1.754,1.754,0,0,1-1.146-.424l-12.327-10.566a1.762,1.762,0,0,1-.422-2.139,21.2,21.2,0,0,0,1.008-2.359,38.331,38.331,0,0,0,2.085-9.146,1.761,1.761,0,1,1,3.5.384,41.872,41.872,0,0,1-2.287,9.995c-.2.53-.385,1.012-.578,1.461l10.167,8.714,10.166-8.714c-.194-.452-.386-.939-.584-1.479a42.331,42.331,0,0,1-2.3-10,1.761,1.761,0,1,1,3.5-.407,38.9,38.9,0,0,0,2.1,9.178,21.3,21.3,0,0,0,1.013,2.374,1.762,1.762,0,0,1-.422,2.139l-12.327,10.566A1.753,1.753,0,0,1,151.12,291.517Zm0,0" transform="translate(-108.856 -210.512)"/><path class="f" d="M89.352,31.7a1.761,1.761,0,0,1-1.707-1.333A63.539,63.539,0,0,1,85.832,17.61c0-9.084,5-14.088,14.088-14.088,2.1,0,4.344.069,6.615.139,7.939.244,17.812.548,20.1-2.878a1.761,1.761,0,0,1,3.174.55c.086.344,2.06,8.463-1.582,13.127a8.581,8.581,0,0,1-7.169,3.149h0c-1.854,0-3.858-.152-5.98-.314-6.231-.476-13.3-1.012-17.135,2.549-2.22,2.058-3.3,5.359-3.3,10.092a1.761,1.761,0,1,1-3.522.025A1.762,1.762,0,0,1,89.352,31.7ZM99.92,7.044c-7.207,0-10.566,3.357-10.566,10.566a61.082,61.082,0,0,0,1.708,11.9,1.8,1.8,0,0,1,.053.393c0-5.751,1.454-9.885,4.426-12.641,4.97-4.608,12.846-4.009,19.8-3.478,2.053.156,3.993.3,5.713.3h0a5.182,5.182,0,0,0,4.393-1.794,10.86,10.86,0,0,0,1.395-7.149c-4.6,2.527-12.616,2.279-20.413,2.037C104.193,7.112,101.989,7.044,99.92,7.044Zm0,0" transform="translate(-68.223 0)"/><path class="f" d="M287.382,66.708a1.76,1.76,0,0,1-1.67-2.317c1.365-4.1,2.844-10.769,1.856-12.744a13.914,13.914,0,0,0-4.674-4.3,1.761,1.761,0,0,1,1.931-2.946,16.59,16.59,0,0,1,5.893,5.669c1.986,3.974-1.039,13.552-1.665,15.433A1.762,1.762,0,0,1,287.382,66.708Zm0,0" transform="translate(-223.988 -35.011)"/><path class="f" d="M96.672,323.318a1.759,1.759,0,0,1-1.246-.516l-17.609-17.61a1.76,1.76,0,0,1,.458-2.82l7.044-3.522a1.759,1.759,0,0,1,2.032.33l5.283,5.283a1.761,1.761,0,0,1-2.49,2.49l-4.384-4.385-3.725,1.861,14.8,14.8,5.823-4.368a1.761,1.761,0,1,1,2.113,2.817l-7.044,5.283A1.754,1.754,0,0,1,96.672,323.318Zm0,0" transform="translate(-61.452 -237.03)"/><path class="f" d="M205.571,323.323a1.759,1.759,0,0,1-1.057-.352l-7.044-5.283a1.761,1.761,0,0,1,2.113-2.817l5.823,4.367,14.8-14.8-3.724-1.861-4.384,4.384a1.761,1.761,0,0,1-2.49-2.49l5.282-5.282a1.765,1.765,0,0,1,2.033-.331l7.044,3.522a1.762,1.762,0,0,1,.458,2.821l-17.609,17.609A1.759,1.759,0,0,1,205.571,323.323Zm0,0" transform="translate(-156.263 -237.035)"/><path class="f" d="M198.527,403.641a1.761,1.761,0,0,1-1.761-1.761V377.226a1.761,1.761,0,1,1,3.522,0v24.653A1.761,1.761,0,0,1,198.527,403.641Zm0,0" transform="translate(-156.263 -297.982)"/></g></svg>