<svg xmlns="http://www.w3.org/2000/svg" width="55" height="54" viewBox="0 0 55 54">
    <g fill="none" fill-rule="evenodd">
        <path stroke="#000" stroke-linecap="round" stroke-width="1.5" d="M40.868 1.202H14.476A13.319 13.319 0 0 0 1.159 14.518v24.823M14.476 52.657h26.392A13.319 13.319 0 0 0 54.185 39.34V14.518"/>
        <g stroke="#000" stroke-width="1.185">
            <path d="M24.657 14.089v2.845M31.172 14.089v2.845"/>
            <ellipse cx="3.479" cy="3.504" rx="3.45" ry="3.45" transform="translate(37.768 25.101)"/>
            <path d="M27.566 30.905s-.616 8.011 7.354 8.011c6.135 0 6.327-6.861 6.327-6.861M27.552 30.905h4.952s.935-.07 1.077-1.112l1.764-13.185s-.092-.945-.942-.945h-3.195"/>
            <path d="M28.175 30.905h-4.952s-.936-.07-1.077-1.112l-1.764-13.185s.092-.945.942-.945h3.195"/>
        </g>
        <path fill="#FFF" d="M23.333 28.885l-5.888 5.888 2.927 2.927c1.616 1.616 4.247 1.61 5.872-.016 1.625-1.625 1.632-4.256.016-5.872l-2.927-2.927zm-2.937-2.937c-1.615-1.615-4.246-1.608-5.871.017s-1.632 4.256-.017 5.871l2.928 2.928 5.888-5.888-2.928-2.928z"/>
        <path stroke="#000" stroke-width="1.185" d="M17.448 34.895c-.004 0 2.932 2.932 2.932 2.932 1.616 1.616 4.247 1.609 5.872-.016s1.632-4.256.016-5.872c0 0-2.935-2.932-2.931-2.932-.003 0-1.364 1.365-3.098 3.1"/>
        <path fill="#FFF" stroke="#000" stroke-width="1.185" d="M15.849 33.378s1.58 1.568 1.571 1.572"/>
        <path stroke="#000" stroke-width="1.185" d="M19.41 32.904c1.737-1.738 3.912-3.913 3.909-3.913.004 0-2.932-2.931-2.932-2.931-1.616-1.616-4.247-1.608-5.871.016a4.214 4.214 0 0 0-1.225 3.179"/>
    </g>
</svg>
