<svg xmlns="http://www.w3.org/2000/svg" width="56.872" height="56.877" viewBox="0 0 56.872 56.877"><g transform="translate(0 0)">
<path fill="#2196f3" d="M28.461.006A27.893,27.893,0,0,0,.025,27.257,26.737,26.737,0,0,0,9.5,47.541v8.152a1.185,1.185,0,0,0,1.813,1l6.6-4.126a29.34,29.34,0,0,0,10.54,1.936A27.893,27.893,0,0,0,56.9,27.257,27.893,27.893,0,0,0,28.461.006Z" transform="translate(-0.025 0)"/>
<path fill="#fafafa" d="M123.049,171.171a1.185,1.185,0,0,0-1.517-.332l-12.322,6.718-7.666-6.574a1.185,1.185,0,0,0-1.609.062L85.717,185.263a1.185,1.185,0,0,0,1.405,1.877l12.322-6.718L107.117,187a1.185,1.185,0,0,0,1.609-.062l14.218-14.218A1.185,1.185,0,0,0,123.049,171.171Z" transform="translate(-75.892 -151.734)"/></g></svg>
