<svg xmlns="http://www.w3.org/2000/svg" width="18" height="18" viewBox="0 0 18 18">
    <path fill="#3E3F44" fill-rule="evenodd" d="M9 2.25c4.119 0 7.5 2.73 7.5 6.177 0 1.277-.463 2.485-1.328 3.512l-.147.169.294 2.49c.092.774-.687 1.364-1.421 1.079l-3.182-1.235A9.905 9.905 0 0 1 9 14.605c-4.119 0-7.5-2.73-7.5-6.178S4.881 2.25 9 2.25zm0 1.109c-3.543 0-6.377 2.287-6.377 5.068 0 2.782 2.834 5.07 6.377 5.07a9.08 9.08 0 0 0 1.669-.174l.159-.03 3.36 1.306-.34-2.877.185-.189c.88-.898 1.344-1.97 1.344-3.106 0-2.78-2.834-5.068-6.377-5.068zm.587 5.54c.376 0 .682.3.682.672a.677.677 0 0 1-.682.672H6.653a.677.677 0 0 1-.682-.672c0-.371.305-.672.682-.672h2.934zm1.76-2.287c.377 0 .682.3.682.672a.677.677 0 0 1-.682.672H6.653a.677.677 0 0 1-.682-.672c0-.372.305-.672.682-.672h4.694z"/>
</svg>
