<svg xmlns="http://www.w3.org/2000/svg" width="18" height="19" viewBox="0 0 18 19">
    <path fill="#828292" fill-rule="evenodd" d="M5.728 2.741a6.15 6.15 0 0 0-.674.499 8.11 8.11 0 0 0-.804 11.466c2.953 3.386 8.1 3.745 11.496.801.11-.095.221-.201.335-.32a1.486 1.486 0 0 0-1.27-2.507c-2.079.279-3.896-.484-5.521-2.348-1.44-1.65-1.873-3.622-1.3-5.996A1.491 1.491 0 0 0 5.727 2.74zm.67 1.357l.126-.086.007-.028c-.683 2.835-.14 5.306 1.628 7.334l.184.205c1.843 2.016 4.004 2.923 6.425 2.672l.21-.025.026-.025a3.811 3.811 0 0 1-.24.229 6.666 6.666 0 0 1-9.384-.654 6.61 6.61 0 0 1 .656-9.347c.1-.086.22-.178.361-.275z"/>
</svg>
