<svg xmlns="http://www.w3.org/2000/svg" width="49.058" height="49.058" viewBox="0 0 49.058 49.058"><title>muito_bom</title><g id="Layer_2" data-name="Layer 2"><g id="OBJECTS"><circle cx="24.529" cy="24.529" r="24.529" fill="#ffd972"/><path d="M36.1688,30.4652c-.46,6.3626-6.182,11.7555-12.7263,11.2829S12.01,35.1162,12.47,28.7535Z" fill="#252c37"/><path d="M24.0837,32.8681a13.4545,13.4545,0,0,0-9.7655,3.25,11.6814,11.6814,0,0,0,18.9627,1.37A13.4542,13.4542,0,0,0,24.0837,32.8681Z" fill="#f25268"/><path d="M19.4338,16.4537c-.29,4.0146-6.509,7.2105-6.509,7.2105s-5.7141-3.7974-5.4054-8.071a2.9948,2.9948,0,1,1,5.95.5309A2.9918,2.9918,0,1,1,19.4338,16.4537Z" fill="#b60b00" style="isolation:isolate"/><path d="M41.0276,17.82c-.2723,3.77-6.1125,6.7712-6.1125,6.7712s-5.3659-3.566-5.076-7.5793a2.8123,2.8123,0,1,1,5.5874.4985A2.81,2.81,0,1,1,41.0276,17.82Z" fill="#b60b00" style="isolation:isolate"/></g></g></svg>