<svg xmlns="http://www.w3.org/2000/svg" width="18" height="18" viewBox="0 0 18 18">
    <path fill="#828292" fill-rule="evenodd" d="M3.607 3h10.786c.746 0 1.357.6 1.357 1.335v.818a.675.675 0 0 1-.679.667.675.675 0 0 1-.678-.667v-.164a.675.675 0 0 0-.679-.668H4.286c-.373 0-.679.3-.679.668v8.029c0 .367.305.667.679.667h9.428c.373 0 .679-.3.679-.667v-.155c0-.367.305-.667.678-.667.374 0 .679.3.679.667v.816c0 .727-.604 1.321-1.344 1.321H3.607a1.35 1.35 0 0 1-1.357-1.335v-9.33C2.25 3.6 2.86 3 3.607 3zm12.041 6.24a.327.327 0 0 0 0-.474l-1.893-1.862a.337.337 0 0 0-.577.234v1.195H7.071c-.373 0-.678.3-.678.667 0 .367.305.667.678.667h6.107v1.195c0 .3.367.447.577.24l1.893-1.862z"/>
</svg>
