<svg xmlns="http://www.w3.org/2000/svg" width="18" height="18" viewBox="0 0 18 18">
    <path fill="#3E3F44" fill-rule="evenodd" d="M8.998 1.5c3.309 0 5.996 2.678 6.002 5.978 0 .706-.122 1.39-.353 2.024l-.175.446-.09.212c-.477 1.077-1.227 2.2-2.176 3.343a26.731 26.731 0 0 1-1.817 1.97l-.313.303-.287.269-.309.275a.75.75 0 0 1-.995-.018l-.424-.387-.3-.286a27.668 27.668 0 0 1-1.977-2.126c-.948-1.142-1.698-2.264-2.175-3.34a7.757 7.757 0 0 1-.283-.732A5.99 5.99 0 0 1 3 7.482C3 4.177 5.685 1.5 8.998 1.5zm0 1.5a4.489 4.489 0 0 0-4.25 5.955c.063.194.141.394.232.6.413.931 1.09 1.945 1.958 2.99.436.525.897 1.03 1.364 1.507l.469.467.224.215.11-.105.232-.225a25.252 25.252 0 0 0 1.715-1.859c.868-1.046 1.545-2.06 1.958-2.992.052-.117.1-.233.151-.368l.079-.204c.172-.478.26-.982.26-1.502C13.496 5.009 11.48 3 8.998 3zm0 1.362a3.13 3.13 0 0 1 3.132 3.125 3.126 3.126 0 0 1-2.896 3.117l-.183.008h-.13A3.135 3.135 0 0 1 6.5 9.377a3.108 3.108 0 0 1-.636-1.89 3.13 3.13 0 0 1 3.133-3.125zm0 1.5c-.901 0-1.633.73-1.633 1.625a1.632 1.632 0 0 0 1.443 1.616l.132.01h.096a1.623 1.623 0 0 0 1.594-1.626 1.63 1.63 0 0 0-1.632-1.625z"/>
</svg>
