<svg xmlns="http://www.w3.org/2000/svg" width="18" height="18" viewBox="0 0 18 18">
    <path fill="#3E3F44" fill-rule="evenodd" d="M13.306 12.49a.151.151 0 0 0 .125-.122c.197-1.188.39-1.97.602-2.391.357-.708.713-1.29 1.076-1.748l-3.37-3.37a9.06 9.06 0 0 1-1.716 1.108c-.42.212-1.203.405-2.39.602a.151.151 0 0 0-.124.125c-.502 3.343-1.368 5.765-2.623 7.268l.18.18.793.793m0 0l-.794-.794 3.974-3.973a1.57 1.57 0 0 1 .31-1.766 1.579 1.579 0 0 1 2.233.016c.624.624.625 1.624.016 2.233a1.57 1.57 0 0 1-1.766.31L5.86 14.935zm0 0l.18.18c1.502-1.256 3.924-2.122 7.267-2.624m-8.61 2.812l-.955-.955a.551.551 0 0 1-.014-.78C4.991 12.305 5.9 9.946 6.42 6.493c.078-.52.478-.926.996-1.011 1.082-.18 1.79-.354 2.084-.502.62-.312 1.105-.623 1.836-1.242l1.151-1.15a.5.5 0 0 1 .707 0l4.194 4.193a.5.5 0 0 1 0 .707l-1.16 1.16c-.39.417-.793 1.033-1.206 1.854-.148.293-.323 1.002-.502 2.084a1.202 1.202 0 0 1-1.01.996c-3.454.519-5.813 1.428-7.078 2.692a.551.551 0 0 1-.779-.014l-.955-.956zm6.288-6.287a.709.709 0 0 0-1.002-.018A.709.709 0 0 0 10 10c.282.282.73.29 1.002.018a.709.709 0 0 0-.018-1.002z"/>
</svg>
