<svg xmlns="http://www.w3.org/2000/svg" width="55" height="54" viewBox="0 0 55 54">
    <g fill="none" fill-rule="evenodd">
        <path stroke="#000" stroke-linecap="round" stroke-width="1.5" d="M40.907 1.137H14.515A13.319 13.319 0 0 0 1.198 14.453v24.823M14.515 52.592h26.392a13.319 13.319 0 0 0 13.317-13.316V14.453"/>
        <path d="M25.734 15.063a1.331 1.331 0 0 1 1.544-1.06l1.436.258a1.331 1.331 0 0 1 1.087 1.153c.128 1.06.706 2.672 2.977 3.08 2.242.404 3.325-.752 3.81-1.616a1.33 1.33 0 0 1 1.399-.663l1.378.247a1.33 1.33 0 0 1 1.075 1.546l-.661 3.679a1.331 1.331 0 0 0 .853 1.486c1.347.492 3.444 1.639 3.033 3.927-.418 2.32-2.807 2.823-4.212 2.915a1.33 1.33 0 0 0-1.224 1.092c-.173.952-.422 2.336-.604 3.348a1.331 1.331 0 0 1-1.545 1.075l-1.575-.283a1.33 1.33 0 0 1-1.081-1.114c-.138-.908-.697-2.209-2.71-2.57-2.1-.378-3.234.785-3.763 1.622-.29.46-.828.697-1.362.601l-1.658-.298a1.331 1.331 0 0 1-1.075-1.546l.608-3.38a1.332 1.332 0 0 0-.848-1.484c-1.21-.448-2.968-1.535-2.525-4.002.441-2.451 2.352-2.885 3.582-2.9a1.332 1.332 0 0 0 1.292-1.083l.77-4.03z"/>
        <path stroke="#000" stroke-width="1.185" d="M40.33 18.624l-.55 3.054a1.331 1.331 0 0 0 .854 1.487c1.347.492 3.444 1.639 3.032 3.927-.598 3.324-5.241 2.917-5.241 2.917M37.389 35.767l-2.885-.518a1.33 1.33 0 0 1-1.08-1.114c-.139-.908-.698-2.209-2.711-2.57-2.1-.378-3.234.785-3.763 1.622-.289.46-.828.697-1.362.601l-1.658-.298a1.331 1.331 0 0 1-1.075-1.546l.608-3.38a1.332 1.332 0 0 0-.848-1.484c-1.21-.448-2.968-1.535-2.524-4.002.44-2.451 2.351-2.885 3.581-2.9a1.332 1.332 0 0 0 1.293-1.083c.21-1.106.526-2.756.74-3.877a1.33 1.33 0 0 1 1.464-1.073l1.475.175a1.331 1.331 0 0 1 1.163 1.15c.142 1.06.738 2.625 2.97 3.026 3.461.623 4.16-2.469 4.16-2.469"/>
        <path fill="#FFF" d="M13.05 26.993a1.331 1.331 0 0 1 .782-1.696l3.786-1.428c.624-.236.978-.9.825-1.55-.3-1.283-.38-3.328 1.804-4.152 2.183-.824 3.475.765 4.096 1.925.316.59 1.02.855 1.644.619l2.805-1.058a1.331 1.331 0 0 1 1.715.777l.537 1.421c.236.627.9.98 1.55.827 1.176-.272 3.002-.23 3.915 2.19 1.01 2.676-.236 3.951-1.254 4.52a1.331 1.331 0 0 0-.6 1.635l1.13 3a1.333 1.333 0 0 1-.774 1.717l-2.914 1.1a1.33 1.33 0 0 1-1.47-.369c-.642-.728-1.905-1.639-3.872-.896-1.96.74-2.253 2.29-2.215 3.29a1.33 1.33 0 0 1-.86 1.3l-3.558 1.343a1.33 1.33 0 0 1-1.716-.777l-1.223-3.244a1.332 1.332 0 0 1 .512-1.582c.935-.62 2.123-1.909 1.262-4.19-.866-2.295-2.707-2.433-3.876-2.256a1.333 1.333 0 0 1-1.458-.867l-.573-1.6z"/>
        <path stroke="#000" stroke-width="1.185" d="M20.253 18.172c2.183-.823 3.475.765 4.096 1.925.316.59 1.019.855 1.644.62l2.805-1.058a1.331 1.331 0 0 1 1.715.777l.536 1.42c.237.627.9.981 1.551.828 1.176-.273 3.002-.23 3.915 2.189 1.01 2.676-.236 3.952-1.255 4.521a1.331 1.331 0 0 0-.599 1.635l1.13 3a1.333 1.333 0 0 1-.774 1.716l-2.914 1.1a1.33 1.33 0 0 1-1.47-.369c-.643-.728-1.905-1.638-3.873-.896M24.659 39.78l-4.556 1.718a1.33 1.33 0 0 1-1.715-.777l-1.224-3.244a1.332 1.332 0 0 1 .512-1.582c.935-.62 2.123-1.908 1.262-4.19M14.03 29.727l-.984-2.743a1.331 1.331 0 0 1 .783-1.696l3.404-1.284"/>
    </g>
</svg>
