<svg xmlns="http://www.w3.org/2000/svg" width="55" height="54" viewBox="0 0 55 54">
    <g fill="none" fill-rule="evenodd" stroke="#000">
        <g stroke-width="1.185">
            <path d="M18.583 26.888l.142 12.797s.028 1.983 2.027 1.983c2 0 2.107-1.735 2.107-1.735V35.41M18.055 25.029c-2.178-.812-2.819-4.768-2.819-6.167 0-3.727 2.458-6.754 5.485-6.754s5.485 3.027 5.485 6.754M39.281 15.215v-3.107s-6.63-.124-6.63 5.453v12.89h2.891M35.253 37.005v2.928s.247 1.735 1.922 1.735c1.672 0 2.106-1.673 2.106-1.673V22.546M20.722 13.66s-3.992.41-3.992 5.203"/>
            <path d="M35.967 13.938s-2.143.992-2.143 3.49v11.423M19.832 32.933v5.86s-.089 1.305.888 1.578M36.497 32.933v5.86s-.088 1.305.888 1.578"/>
        </g>
        <path stroke-linecap="round" stroke-width="1.5" d="M32.649 1.16H14.512c-7.354 0-13.317 5.962-13.317 13.316v27.192M19.22 52.615h21.685A13.319 13.319 0 0 0 54.222 39.3V12.108"/>
    </g>
</svg>
