<svg xmlns="http://www.w3.org/2000/svg" width="49.058" height="49.058" viewBox="0 0 49.058 49.058"><title>ruim</title><g id="Layer_2" data-name="Layer 2"><g id="OBJECTS"><circle cx="24.529" cy="24.529" r="24.529" fill="#ffd972"/><path d="M40.709,21.6819A5.4394,5.4394,0,0,0,36.43,19.5258a5.172,5.172,0,0,0-1.5685.2417" fill="none" stroke="#252c37" stroke-linecap="round" stroke-linejoin="round" stroke-width="2.4529"/><path d="M33.0411,28.0544c0,2.4523,1.5171,4.44,3.3886,4.44s3.3886-1.9879,3.3886-4.44" fill="none" stroke="#252c37" stroke-linecap="round" stroke-linejoin="round" stroke-width="2.4529"/><path d="M8.5121,21.6819a5.4394,5.4394,0,0,1,4.2794-2.1561,5.172,5.172,0,0,1,1.5685.2417" fill="none" stroke="#252c37" stroke-linecap="round" stroke-linejoin="round" stroke-width="2.4529"/><path d="M16.18,28.0544c0,2.4523-1.5171,4.44-3.3886,4.44s-3.3886-1.9879-3.3886-4.44" fill="none" stroke="#252c37" stroke-linecap="round" stroke-linejoin="round" stroke-width="2.4529"/><path d="M18.8056,41.6993a9.7548,9.7548,0,0,1,5.904-2.2405,8.2194,8.2194,0,0,1,5.5429,2.2405" fill="none" stroke="#252c37" stroke-linecap="round" stroke-linejoin="round" stroke-width="2.4529"/></g></g></svg>