<svg xmlns="http://www.w3.org/2000/svg" width="18" height="18" viewBox="0 0 18 18">
    <path fill="#3E3F44" fill-rule="evenodd" d="M14.25 8.25v4.5c0 .412-.338.75-.75.75h-9c-.412 0-.75-.338-.75-.75v-4.5c0-.412-.337-.75-.75-.75s-.75.338-.75.75v5.25c0 .825.675 1.5 1.5 1.5h10.5c.825 0 1.5-.675 1.5-1.5V8.25c0-.412-.338-.75-.75-.75s-.75.338-.75.75zm-4.5.502l1.41-1.41c.293-.292.765-.292 1.057 0 .293.293.293.766 0 1.058l-2.692 2.692c-.293.293-.765.293-1.058 0L5.775 8.4c-.293-.293-.293-.765 0-1.058.292-.292.765-.292 1.057 0l1.418 1.41V3.75c0-.413.338-.75.75-.75s.75.337.75.75v5.002z"/>
</svg>
