<svg xmlns="http://www.w3.org/2000/svg" width="20" height="20" viewBox="0 0 20 20">
    <path fill="#455CC7" fill-rule="evenodd" d="M14.658 2.992a1.672 1.672 0 0 0-1.183-.492H4.167c-.925 0-1.667.75-1.667 1.667v11.666c0 .917.75 1.667 1.667 1.667h11.666c.917 0 1.667-.75 1.667-1.667V6.525c0-.442-.175-.867-.492-1.175l-2.35-2.358zM10 15.833a2.497 2.497 0 0 1-2.5-2.5c0-1.383 1.117-2.5 2.5-2.5s2.5 1.117 2.5 2.5c0 1.384-1.117 2.5-2.5 2.5zm.833-8.333h-5c-.916 0-1.666-.75-1.666-1.667 0-.916.75-1.666 1.666-1.666h5c.917 0 1.667.75 1.667 1.666 0 .917-.75 1.667-1.667 1.667z"/>
</svg>
