<svg xmlns="http://www.w3.org/2000/svg" width="105" height="69.288" viewBox="0 0 105 69.288"><defs><style>.a{fill:#eb7a0c;}.b{fill:#a4c2f7;}.c{fill:#e3e7f2;}.d{fill:#fff;}.e{fill:#455cc7;}</style></defs><g transform="translate(0 0)"><path class="a" d="M176.8,358.931l20.523-13.682" transform="translate(-139.892 -291.376)"/><g transform="translate(32.248 1.732)"><path class="b" d="M183.726,302.432,176.8,324.951l20.523-13.683Z" transform="translate(-171.601 -259.127)"/><path class="b" d="M163.742,135.9l-6.818,22.518-5.307-29.447L222.637,92.6Z" transform="translate(-151.617 -92.596)"/><path class="b" d="M267.605,104.719a1.666,1.666,0,0,1-1.505-.846L210.371,144.85l34.644,22.518,23.121-62.758A1.825,1.825,0,0,1,267.605,104.719Z" transform="translate(-198.246 -101.546)"/></g><path class="c" d="M258.872,119.508l-48.5,36.376,31.179,19.054,20.786-57.162Z" transform="translate(-165.997 -110.847)"/><path class="d" d="M104.275,98.245,8.394,117.865l29.852,15.59,67.331-34.147A1.684,1.684,0,0,1,104.275,98.245Z" transform="translate(-6.662 -95.347)"/><path class="c" d="M119.93,117.776,34.109,136.83l24.52,12.125,62.6-30.116A1.686,1.686,0,0,1,119.93,117.776Z" transform="translate(-27.07 -110.847)"/><path class="e" d="M78.777,153.489a1.761,1.761,0,0,1-.953-.279L42.862,130.691a1.723,1.723,0,0,1-.084-2.849L84.721,97.284,32.375,123.851a1.763,1.763,0,0,1-1.613-.008L.932,108.252a1.728,1.728,0,0,1,.463-3.229l101.471-20.78a1.758,1.758,0,0,1,1.828.712,1.324,1.324,0,0,1,.1.162,1.7,1.7,0,0,1,.2.985,1.576,1.576,0,0,1-.048.266,1.65,1.65,0,0,1-.058.183l-24.467,65.8A1.745,1.745,0,0,1,78.777,153.489ZM46.886,129.151l31.009,19.971L99.6,90.745ZM6.871,107.439l24.718,12.919L90.98,90.215Z" transform="translate(0.001 -84.201)"/><path class="e" d="M170.137,353.978a1.732,1.732,0,0,1-.963-3.173L189.7,337.123a1.732,1.732,0,1,1,1.922,2.882L171.1,353.687a1.73,1.73,0,0,1-.959.291Z" transform="translate(-133.233 -284.69)"/><path class="e" d="M150.35,153.491c-.033,0-.067,0-.1,0a1.747,1.747,0,0,1-1.626-1.421l-5.375-29.447a1.725,1.725,0,0,1,.927-1.849l71.933-36.376a1.767,1.767,0,0,1,2.292.63,1.718,1.718,0,0,1-.452,2.306l-59.183,42.963-6.737,21.967a1.751,1.751,0,0,1-1.679,1.23Zm-3.418-30.224,3.852,21.1,4.794-15.63a1.73,1.73,0,0,1,.639-.893l42.1-30.559Z" transform="translate(-113.663 -84.203)"/><path class="e" d="M170.134,320.018a1.733,1.733,0,0,1-1.656-2.241l6.929-22.518a1.733,1.733,0,0,1,2.6-.944l13.594,8.837a1.733,1.733,0,0,1,.017,2.894L171.1,319.727A1.724,1.724,0,0,1,170.134,320.018Zm7.91-21.547-4.824,15.676,14.287-9.524Z" transform="translate(-133.232 -250.731)"/></g></svg>