<svg xmlns="http://www.w3.org/2000/svg" width="25" height="24" viewBox="0 0 25 24">
    <path fill="#3E3F44" fill-rule="evenodd" d="M8.872 4.89l.147-.527c.419-1.507 1.834-2.495 3.365-2.349 1.532.146 2.766 1.343 2.985 2.901a7.37 7.37 0 0 1 1.032.611 3.311 3.311 0 0 1 3.938 1.532 3.445 3.445 0 0 1-.669 4.234 6.965 6.965 0 0 1 .014 1.053l-.019.23.543.567a3.227 3.227 0 0 1 .467 3.812 3.111 3.111 0 0 1-3.298 1.537l-.177-.04-.76-.195c-.276.196-.555.37-.839.523l-.285.145-.21.757C14.722 21.053 13.493 22 12.093 22a3.135 3.135 0 0 1-2.96-2.15l-.051-.169-.21-.756c-.295-.14-.58-.3-.856-.48l-.273-.188-.756.194a3.108 3.108 0 0 1-3.475-1.497 3.229 3.229 0 0 1 .339-3.67l.128-.142.543-.568a6.704 6.704 0 0 1-.018-1.104l.018-.23-.543-.568a3.227 3.227 0 0 1-.467-3.812 3.111 3.111 0 0 1 3.298-1.537l.177.04.76.195c.276-.196.555-.37.839-.523l.285-.145.147-.527-.147.527zm3.383-1.474A1.805 1.805 0 0 0 10.397 4.6l-.048.148-.327 1.175-.311.13c-.38.159-.753.368-1.125.627l-.28.205-.264.201L6.65 6.73a1.736 1.736 0 0 0-1.94.836 1.8 1.8 0 0 0 .156 2.007l.103.118 1.003 1.048-.067.567a6.011 6.011 0 0 0-.034.602c0 .185.011.381.034.602l.067.567-1.003 1.048a1.798 1.798 0 0 0-.26 2.125 1.738 1.738 0 0 0 1.799.866l.142-.03 1.396-.358.265.208c.353.277.72.508 1.106.695l.293.132.311.13.39 1.405c.214.766.9 1.295 1.682 1.295.733 0 1.382-.465 1.635-1.154l.046-.14.39-1.406.312-.13c.38-.159.752-.368 1.125-.627l.28-.205.264-.201 1.39.356a1.736 1.736 0 0 0 1.942-.836 1.8 1.8 0 0 0-.157-2.007l-.103-.118-1.003-1.048.063-.524a6 6 0 0 0 .038-.645 6 6 0 0 0-.038-.645l-.07-.584.443-.353a2.016 2.016 0 0 0 .49-2.564 1.94 1.94 0 0 0-2.28-.906l-.144.053-.529.216-.312-.245a6.116 6.116 0 0 0-1.106-.695l-.293-.132-.366-.153L14 5.108a1.961 1.961 0 0 0-1.745-1.692zm-.161 4.5c2.16 0 3.917 1.79 3.917 3.991s-1.756 3.99-3.917 3.99c-2.16 0-3.917-1.789-3.917-3.99 0-2.2 1.756-3.99 3.917-3.99zm0 1.41c-1.397 0-2.535 1.158-2.535 2.581s1.138 2.582 2.535 2.582c1.397 0 2.535-1.159 2.535-2.582 0-1.423-1.138-2.582-2.535-2.582z"/>
</svg>
