<svg xmlns="http://www.w3.org/2000/svg" width="18" height="18" viewBox="0 0 18 18">
    <path fill="#3E3F44" fill-rule="evenodd" d="M12.75 11.35c-.57 0-1.08.226-1.47.58L7.433 9.558c.037-.173.067-.346.067-.527 0-.18-.03-.354-.067-.527L11.22 6.16c.405.377.938.61 1.53.61 1.245 0 2.25-1.01 2.25-2.26 0-1.25-1.005-2.26-2.25-2.26S10.5 3.26 10.5 4.51c0 .18.03.354.068.527L6.78 7.38c-.405-.376-.938-.61-1.53-.61C4.005 6.77 3 7.78 3 9.03c0 1.25 1.005 2.26 2.25 2.26.593 0 1.125-.233 1.53-.61l3.84 2.38c-.037.159-.06.324-.06.49 0 1.213.982 2.2 2.19 2.2 1.207 0 2.19-.987 2.19-2.2s-.982-2.2-2.19-2.2zm0-7.593c.412 0 .75.339.75.753s-.338.753-.75.753S12 4.924 12 4.51s.338-.753.75-.753zm-7.5 6.026c-.412 0-.75-.339-.75-.753s.338-.753.75-.753.75.339.75.753-.338.753-.75.753zm7.5 4.536c-.412 0-.75-.34-.75-.754s.338-.753.75-.753.75.339.75.753c0 .415-.338.754-.75.754z"/>
</svg>
