<svg xmlns="http://www.w3.org/2000/svg" width="18" height="18" viewBox="0 0 18 18">
    <path fill="#3E3F44" fill-rule="evenodd" d="M9 1.5c2.824 0 5.114 2.306 5.114 5.15v.581h.17A2.23 2.23 0 0 1 16.5 9.463v1.373a2.23 2.23 0 0 1-2.216 2.231h-.224a2.816 2.816 0 0 1-1.065 1.679c-.655.505-1.57.824-2.727.885A1.37 1.37 0 0 1 9 16.5c-.747 0-1.364-.62-1.364-1.373 0-.752.617-1.373 1.364-1.373.562 0 1.05.353 1.257.847.976-.059 1.668-.331 2.115-.676.33-.255.531-.545.634-.858a.836.836 0 0 1-.188-.515V7.746c.004-.145.095-.316.273-.515V6.65c0-2.29-1.816-4.12-4.091-4.12-2.275 0-4.09 1.83-4.09 4.12v.582c.18.164.272.335.272.515v4.806c0 .27-.244.515-.512.515h-.954A2.23 2.23 0 0 1 1.5 10.836V9.463A2.23 2.23 0 0 1 3.716 7.23h.17V6.65C3.886 3.806 6.176 1.5 9 1.5zm5.147 6.96h-.448v3.552h.448c1.264 0 1.412-.514 1.412-1.46V9.493c0-.946-.622-1.033-1.412-1.033zm-9.838 0H3.86c-.79 0-1.412.087-1.412 1.033v1.059c0 .946.148 1.46 1.412 1.46h.448V8.46z"/>
</svg>
