<svg xmlns="http://www.w3.org/2000/svg" width="55" height="54" viewBox="0 0 55 54">
    <g fill="none" fill-rule="evenodd" stroke="#000">
        <path stroke-linecap="round" stroke-width="1.5" d="M40.863 1.19H14.471A13.319 13.319 0 0 0 1.154 14.508V39.33M14.47 52.646h26.393A13.319 13.319 0 0 0 54.18 39.33V14.507"/>
        <g stroke-width="1.185">
            <path d="M13.54 38.02H41.99M37.45 18.565s-1.546-2.897-4.566-1.347L28.049 19.7l-6.575-3.828h-3.05l5.088 6.242-4.047 2.364-3.823-1.631-2.097 1.184 2.41 2.813s-1.012.751-.447 1.09c.55.337 3.303 1.38 6.918-.776 3.064-1.828 13.864-6.922 15.025-8.593z"/>
        </g>
    </g>
</svg>
