<svg xmlns="http://www.w3.org/2000/svg" width="24" height="24" viewBox="0 0 24 24">
    <path fill="#ADB1C9" fill-rule="evenodd" d="M19 3a2 2 0 0 1 2 2v14c0 1.1-.9 2-2 2H5a2 2 0 0 1-2-2V5a2 2 0 0 1 2-2zm0 4H5v11c0 .55.45 1 1 1h12c.55 0 1-.45 1-1V7zm-9.99 3.21a.734.734 0 0 1 1.03 0 .713.713 0 0 1 0 1.016l-1.784 1.77 1.783 1.771c.283.281.29.742 0 1.022a.734.734 0 0 1-1.03 0l-2.297-2.282a.713.713 0 0 1 0-1.014zm4.95 0a.734.734 0 0 1 1.03 0l2.298 2.283a.713.713 0 0 1 0 1.014L14.99 15.79a.734.734 0 0 1-1.03 0 .713.713 0 0 1 0-1.015l1.791-1.778-1.79-1.77a.713.713 0 0 1 0-1.015z"/>
</svg>
