<svg xmlns="http://www.w3.org/2000/svg" width="20" height="20" viewBox="0 0 20 20">
    <path fill="#3E3F44" fill-rule="evenodd" d="M10.383 3.402a.837.837 0 0 0-.835.1L5.553 6.656h-3.05a.835.835 0 0 0-.836.834v5.005a.833.833 0 0 0 .835.834h3.05l3.954 3.154c.147.118.33.182.518.184a.762.762 0 0 0 .359-.084.834.834 0 0 0 .476-.75V4.152a.834.834 0 0 0-.476-.75v-.001zM9.188 14.097l-2.825-2.253a.836.836 0 0 0-.518-.183H3.338V8.324h2.507a.836.836 0 0 0 .518-.183l2.825-2.253v8.209zm3.46-10.703a.845.845 0 0 0-.899 1.15.844.844 0 0 0 .666.518 5.008 5.008 0 0 1 4.25 4.947 5.008 5.008 0 0 1-4.25 4.947.838.838 0 0 0-.64 1.304.838.838 0 0 0 .756.365h.117a6.678 6.678 0 0 0 5.685-6.599c0-3.3-2.416-6.105-5.685-6.599v-.033zm-.384 8.16a.846.846 0 0 0-.537 1.374.847.847 0 0 0 .804.294.946.946 0 0 0 .268-.042 3.337 3.337 0 0 0 2.226-3.145 3.337 3.337 0 0 0-2.226-3.145.836.836 0 1 0-.535 1.585 1.669 1.669 0 0 1 0 3.12v-.042z"/>
</svg>
