<svg xmlns="http://www.w3.org/2000/svg" width="14" height="14" viewBox="0 0 14 14">
    <path fill="#FFF" fill-rule="evenodd" d="M5.486 2.619c.674-1.164 2.354-1.164 3.028 0l4.392 7.589c.675 1.165-.166 2.625-1.514 2.625H2.608c-1.348 0-2.189-1.46-1.514-2.625zm2.018.584a.583.583 0 0 0-1.008 0l-4.393 7.59a.583.583 0 0 0 .504.874h8.785a.583.583 0 0 0 .505-.875zm.08 6.13V10.5H6.416V9.333h1.166zM7 5.833c.32 0 .583.263.583.584v1.166c0 .321-.262.584-.583.584a.585.585 0 0 1-.583-.584V6.417c0-.321.262-.584.583-.584z"/>
</svg>
