<svg xmlns="http://www.w3.org/2000/svg" width="58.068" height="56.266" viewBox="0 0 58.068 56.266"><ellipse fill="none" cx="3.004" cy="3.004" rx="3.004" ry="3.004" transform="translate(10.012 29.234)"/>

<ellipse fill="none" cx="3.004" cy="3.004" rx="3.004" ry="3.004" transform="translate(21.025 29.234)"/>
<path fill="none" d="M47.036,33.234a22.493,22.493,0,0,1-2.6,10.612l8.91,2.4-3.6-10.913a21.055,21.055,0,0,0,2.9-10.612A20.706,20.706,0,0,0,15.9,11.609a23.633,23.633,0,0,1,8.009-1.4A22.925,22.925,0,0,1,47.036,33.234Z" transform="translate(0.019 -0.896)"/>
<ellipse fill="none" cx="3.004" cy="3.004" rx="3.004" ry="3.004" transform="translate(32.037 29.234)"/>
<path fill="#ff9a00" d="M56.266,45.152l-3.2-9.611a24.323,24.323,0,0,0,2.6-10.913,24.048,24.048,0,0,0-6.908-16.82,23.765,23.765,0,0,0-38.145,6.508A23.227,23.227,0,0,0,.8,33.238,23.711,23.711,0,0,0,4,45.052L0,57.166l13.215-3.5A22.875,22.875,0,0,0,42.85,46.453l9.811,2.6,5.406,1.4ZM13.015,36.141a3,3,0,1,1,3-3A2.95,2.95,0,0,1,13.015,36.141Zm11.013,0a3,3,0,1,1,3-3A2.95,2.95,0,0,1,24.028,36.141Zm11.013,0a3,3,0,1,1,3-3A2.95,2.95,0,0,1,35.041,36.141Zm9.411,7.609a21.808,21.808,0,0,0,2.6-10.512A23.073,23.073,0,0,0,23.928,10.111a23.634,23.634,0,0,0-8.009,1.4A20.706,20.706,0,0,1,52.662,24.628a21.054,21.054,0,0,1-2.9,10.612l3.6,10.913Z" transform="translate(0 -0.9)"/></svg>
