<svg xmlns="http://www.w3.org/2000/svg" width="23.151" height="23.152" viewBox="0 0 23.151 23.152"><title>12</title><g id="Layer_2" data-name="Layer 2"><g id="OBJECTS"><g id="Group_8" data-name="Group 8"><circle id="椭圆形-25" cx="15.28" cy="14.045" r="1.235" fill="#828292"/><path id="路径-34" d="M22.687,10.341H15.275a4.1658,4.1658,0,0,0-3.7,3.7h0a4.1658,4.1658,0,0,0,3.7,3.7h7.408" fill="none" stroke="#828292" stroke-linecap="round" stroke-linejoin="round" stroke-width="0.926"/><path id="路径-35" d="M.463,17.749V8.489A3.087,3.087,0,0,1,3.55,5.402H19.601a3.087,3.087,0,0,1,3.087,3.087V19.602a3.087,3.087,0,0,1-3.087,3.087H2.932" fill="none" stroke="#828292" stroke-linecap="round" stroke-linejoin="round" stroke-width="0.926"/><path id="路径-36" d="M.463,12.81V3.55A3.087,3.087,0,0,1,3.55.463h9.878A3.087,3.087,0,0,1,16.515,3.55V5.402" fill="none" stroke="#828292" stroke-linecap="round" stroke-linejoin="round" stroke-width="0.926"/></g></g></g></svg>