<svg xmlns="http://www.w3.org/2000/svg" width="24.385" height="24.382" viewBox="0 0 24.385 24.382"><title>23</title><g id="Layer_2" data-name="Layer 2"><g id="OBJECTS"><g id="Group_23" data-name="Group 23"><circle id="椭圆形-13" cx="5.402" cy="18.984" r="1.235" fill="#828292"/><path id="路径-9" d="M.463,18.363V3.55A3.087,3.087,0,0,1,3.55.463h3.7a3.087,3.087,0,0,1,3.091,3.083V7.25" fill="none" stroke="#828292" stroke-linecap="round" stroke-linejoin="round" stroke-width="0.926"/><path id="路径-10" d="M3.5518,14.0422,14.0262,3.5678a3.087,3.087,0,0,1,4.3656,0l2.6163,2.6163a3.087,3.087,0,0,1,.0057,4.3657l-.0028.0028L17.5186,14.045" fill="none" stroke="#828292" stroke-linecap="round" stroke-linejoin="round" stroke-width="0.926"/><path id="路径-11" d="M.463,18.984V17.132A3.087,3.087,0,0,1,3.55,14.045H20.835a3.087,3.087,0,0,1,3.087,3.087v3.7a3.087,3.087,0,0,1-3.087,3.087H2.932" fill="none" stroke="#828292" stroke-linecap="round" stroke-linejoin="round" stroke-width="0.926"/></g></g></g></svg>