<svg xmlns="http://www.w3.org/2000/svg" width="25.62" height="25.62" viewBox="0 0 25.62 25.62"><title>8</title><g id="Layer_2" data-name="Layer 2"><g id="OBJECTS"><g id="Group_11" data-name="Group 11"><circle id="椭圆形-22" cx="19.601" cy="15.28" r="1.235" fill="#828292"/><path id="路径-27" d="M9.723,20.218V18.366a3.472,3.472,0,0,1,3.087-3.087h0a3.472,3.472,0,0,1,3.086,3.087v1.852" fill="none" stroke="#828292" stroke-linecap="round" stroke-linejoin="round" stroke-width="0.926"/><path id="路径-28" d="M23.304,9.723V22.07a3.087,3.087,0,0,1-3.087,3.087H4.784" fill="none" stroke="#828292" stroke-linecap="round" stroke-linejoin="round" stroke-width="0.926"/><path id="路径-29" d="M2.315,9.723V20.218" fill="none" stroke="#828292" stroke-linecap="round" stroke-linejoin="round" stroke-width="0.926"/><path id="路径-30" d="M3.801,1.013A1.2351,1.2351,0,0,1,4.828.463H20.792a1.2351,1.2351,0,0,1,1.027.55l3.338,5.006a4.322,4.322,0,0,1-8.334,1.607,4.323,4.323,0,0,1-8.026,0A4.322,4.322,0,0,1,.463,6.019Z" fill="none" stroke="#828292" stroke-linecap="round" stroke-linejoin="round" stroke-width="0.926"/></g></g></g></svg>